<?xml version="1.0"?>
<svg xmlns="http://www.w3.org/2000/svg" xmlns:xlink="http://www.w3.org/1999/xlink" id="&#x421;&#x43B;&#x43E;&#x439;_1" data-name="&#x421;&#x43B;&#x43E;&#x439; 1" viewBox="0 0 171.26 30.86">
  <defs>
    <style>.cls-1{fill:#fff;}.cls-2{fill:#dde5f0;}.cls-3,.cls-4{fill:none;}.cls-4{stroke:#a71933;stroke-width:0.88px;}.cls-5{fill:#a71933;}.cls-6{fill:url(#linear-gradient);}.cls-7{fill:url(#linear-gradient-2);}.cls-8{fill:url(#linear-gradient-3);}</style>
    <linearGradient id="linear-gradient" x1="148.67" y1="20.57" x2="148.67" y2="15.72" gradientUnits="userSpaceOnUse">
      <stop offset="0" stop-color="#fff"/>
      <stop offset="1" stop-color="#573b1c"/>
    </linearGradient>
    <linearGradient id="linear-gradient-2" x1="153.39" y1="14.64" x2="153.39" y2="11.31" xlink:href="#linear-gradient"/>
    <linearGradient id="linear-gradient-3" x1="144.32" y1="14.64" x2="144.32" y2="11.31" xlink:href="#linear-gradient"/>
  </defs>
  <title>winter-house</title>
  <g id="Snow">
    <path class="cls-1" d="M371.46,66.15c5.13.1,8.61-1.09,10.62-.33a4.8,4.8,0,0,0,4.39,0c1.65-.65,5.5-1.09,7,.54,0,0,3.3,1.09,4.4-1.41.08-.2.13-.37.19-.56-2-2-1.8-4.26-6.79-3.67s-9.51-1.82-13.17-1.22-8.43,1-10.62,2.43a8.55,8.55,0,0,0-2,1.62A8.63,8.63,0,0,0,371.46,66.15Z" transform="translate(-227.53 -44.46)"/>
    <path class="cls-2" d="M367.44,67a13.31,13.31,0,0,0,7.32.81,17.06,17.06,0,0,1,6.22-.42c1.91,0,2.17,1.32,4.37.3s3.75-.86,5.21.35,1.77,1.19,3.6,1.39,6.23-2.84,4-4.86l-.17-.18c-.06.19-.11.36-.19.56-1.1,2.5-4.4,1.41-4.4,1.41-1.46-1.63-5.31-1.19-7-.54a4.8,4.8,0,0,1-4.39,0c-2-.76-5.49.43-10.62.33a8.63,8.63,0,0,1-6-2.6C364.69,64.52,364.9,65.6,367.44,67Z" transform="translate(-227.53 -44.46)"/>
  </g>
  <g id="Snow-2">
    <path class="cls-1" d="M374,67.52c-3.14-2.72-6.68-.68-10.22-1s-11,.34-15.74,1-14.55,0-17.7-1-5.9,1.36-11.4.68c-3.93-.48-6.85-2.51-9.63-3,1.23-1.41,4.71-3.42,7.76-2.24a18.44,18.44,0,0,0,9.74,1.53c3.93-.34,12.58,3.39,15.73,1.69s8.65-5.43,12.58-4.07,5.31,1.79,9.74,1.62,7.18-.94,9.94.08,8.64-2.38,10.61,0c1.21,1.46,1.93,2.44,1.85,3.15a5.3,5.3,0,0,0-3.82,1.6C379.86,70.91,377.11,70.23,374,67.52Z" transform="translate(-227.53 -44.46)"/>
    <path class="cls-2" d="M386.06,67c-2,.76-4,5.48-7.83,4.52s-3.35-4.57-8.13-4.29-12.65-.74-17,.28-19.27,1-21.64,0-8.26,1-14.15.34c-2.85-.33-8-.93-7.87-2,0-.21.22.37.5.06,2.78.51,5,.79,8.94,1.27,5.5.68,8.26-1.7,11.4-.68s13,1.7,17.7,1,12.2-1.36,15.74-1,7.08-1.7,10.22,1,5.9,3.39,9.44,0a5.3,5.3,0,0,1,3.82-1.6C387.18,66.37,386.82,66.72,386.06,67Z" transform="translate(-227.53 -44.46)"/>
  </g>
  <g id="Snow-3">
    <path class="cls-1" d="M346.1,66.26c5.06-.61,5.81-1.51,5.81-1.51s1.69,2.17,6.15,2,6-.33,9.27-.63c2.13-.2,5.31-.65,7.29-.94a4.27,4.27,0,0,0-2-.88c-1.1-.14-5,.23-6.07,0-1.93-.41-2.26-1.08-2.27-1.2-.1-1.44-1.72,1.12-1.72,1.12-2.08-1.67-7.51-.43-13.58-.73s-8.18-.54-9.7.51a.8.8,0,0,0-.36.6C340,65.62,343.68,66.55,346.1,66.26Z" transform="translate(-227.53 -44.46)"/>
    <path class="cls-2" d="M345.09,68.22c1.77.76,4.27.57,5.29-.69s2-.52,4.06.24,5.81.3,8.09-.31c1.44-.38,13.26.84,12.76-1.43a1.82,1.82,0,0,0-.67-.86c-2,.29-5.16.74-7.29.94-3.29.3-4.8.45-9.27.63s-6.15-2-6.15-2-.75.9-5.81,1.51a6.11,6.11,0,0,1-5.16-1.67C340.87,65.77,343.6,67.58,345.09,68.22Z" transform="translate(-227.53 -44.46)"/>
  </g>
  <g id="Snow-4">
    <path class="cls-1" d="M311.92,67.34c-.83.87-1.31,1.54-2.91,1,.46-1,1.82-2.49.46-3.1-2-.88-.13-4.58,3.8-5.16s5.39,1.5,7.35,1.65.8,3.8,2.21,3.95c.56.06,2.63,0,4.92,0-2.26.31-4.6.39-6,.57C317.55,66.82,312.9,66.32,311.92,67.34Z" transform="translate(-227.53 -44.46)"/>
    <path class="cls-2" d="M326.38,67.18c-1.23.59-8.44.5-10,.19s-3.7.31-4.29,1.24c-1.07,1.69-1.4,1.36-2.87.77-.45-.18-.41-.55-.21-1,1.6.5,2.23-.64,3.4-1.34,1.84-1.1,4.64-.22,9.31-.73,1.44-.16,3.77-.26,6-.57,3.45,0,7.39-.13,7.39-.13C335.63,66.49,327.6,66.6,326.38,67.18Z" transform="translate(-227.53 -44.46)"/>
  </g>
  <rect class="cls-3" x="395.78" y="52.11" width="1.21" height="1.07" transform="translate(84.75 399.11) rotate(-85.42)"/>
  <path class="cls-1" d="M396.88,52.5l0,0-.06,0h0l.08.06,0,0-.08-.06,0,0,.1.07,0,0-.1-.07,0,0,.13.1h0l-.15.07,0,0,.1-.06,0,0-.11,0,0,0,.09,0,0,0-.09,0,0,0,.07,0,0,0-.06,0,.11.08,0,0-.11-.08V53l0,0V52.9l0,0V53l0,0,0-.1,0,0v.12l0,0V52.8l0,0,0,.16h0l-.14-.09v0l.1.07v0l-.1-.06v0l.08.05v0l-.08-.06v0l.07,0v0l-.06,0v.13h0v-.13l-.07,0v0l.06,0v0l-.09,0v0l.09,0v0l-.1,0v0l.11,0v0l-.15.07h0v-.17l0,0v.11l0,0v-.11h0v.1l0,0v-.1l0,0v.08h0v-.07l-.12.06,0,0,.13-.06-.06,0,0,0,.06.05,0,0-.08-.06,0,0,.08.06,0,0-.09-.07,0,0,.09.07,0,0-.13-.1h0l.14-.07,0,0-.1.06,0,0,.1,0,0,0-.09,0,0,0,.09-.05,0,0-.07,0,0,0,.07,0-.11-.08,0,0,.11.08v-.08l0,0v.07l0,0,0-.1,0,0v.1l0,0v-.12l0,0,0,.11,0,0,0-.17h0l.14.09v0l-.1-.06v0l.1.06v0l-.09,0v0l.08.06v0l-.06,0v0l.07,0V52h0v.13l.06,0v0l-.07,0v0l.09,0v.05l-.1,0v0l.11-.05v.05l-.11,0v0l.16-.06h0v.16h0V52.4l0,0v.12l0,0v-.1l0,0v.1l0,0v-.07l0,0v.07l.13-.06v0l-.12.06Zm-.38.37v-.12l-.06,0v0l-.05,0v.08Zm-.14-.14-.05,0v0l-.06,0v.12l.12-.05Zm-.23-.11.1.07.07,0,0,0,0,0-.06,0Zm.15-.21,0,.12.06,0v0l.05,0v-.08Zm.13.14,0,0v0l.07,0v-.12l-.11,0Zm.14,0-.07,0,0,0,0,0,.07,0,.11-.06Z" transform="translate(-227.53 -44.46)"/>
  <rect class="cls-3" x="392.57" y="56.11" width="1.49" height="1.32" transform="matrix(0.08, -1, 1, 0.08, 77.81, 399.85)"/>
  <path class="cls-1" d="M393.93,56.6l-.05,0-.08,0,0,0,.09.07-.05,0-.09-.08,0,0,.11.08,0,0-.11-.09-.05,0,.17.12h0l-.18.1,0,0,.13-.07,0,0-.13.07.05,0,.1-.06.05,0-.11.06,0,0,.09,0,0,0-.08,0,.14.09,0,0-.14-.09v.09l0,0v-.09l-.05,0v.12l-.05,0,0-.12,0,0,0,.14,0,0,0-.14,0,0,0,.2h0l-.17-.11v0l.12.08v.05l-.13-.07v0l.1.06v.06l-.1-.07v.06l.08,0v.06l-.07,0,0,.17h0v-.16l-.09,0v-.05l.08,0v0l-.12,0v-.06l.11,0v-.06l-.14.06v0l.13-.06v0l-.18.08h0V56.9l-.05,0v.14l-.05,0V57L393,57v.12l-.05,0V57l0,0v.09l-.05,0V57l-.15.07,0,0,.16-.07-.08-.06.05,0,.07,0,.05,0-.1-.07.05,0,.1.07.05,0-.12-.09.05,0,.12.08,0,0-.16-.12h0l.18-.1,0,0-.13.06,0,0,.12-.07,0,0-.11.06,0,0,.11-.06-.05,0-.08,0,0,0,.08,0-.14-.09,0,0,.14.09v-.09l0,0v.09l0,0,0-.12,0,0v.12l0,0,0-.14,0,0v.15l0,0,0-.2h0l.18.11v0l-.12-.08v-.05l.12.08v-.06l-.11-.06v-.06l.1.07v0l-.08,0v-.06l.08,0V56h0v.17l.08,0v.06l-.09,0v0l.11,0v.06l-.11,0v0l.13-.06v.06l-.13.05v.06l.19-.09h0v.21l0,0v-.15l.05,0v.14l.05,0v-.12l.05,0v.13l0,0v-.09l.05,0v.09l.15-.07,0,0-.15.07Zm-.47.46v-.15l-.07-.06v.07l-.06,0V57Zm-.17-.18-.06,0v-.07l-.09,0V57l.14-.06Zm-.29-.13.12.09.09,0-.06,0,.06,0-.07,0Zm.18-.27,0,.16.08,0v-.07l.05,0v-.09Zm.17.18.06,0v.06l.08,0v-.15l-.14.06Zm.16.05-.08,0,.05,0-.06,0,.08.06.14-.07Z" transform="translate(-227.53 -44.46)"/>
  <rect class="cls-3" x="389.59" y="57.22" width="1.77" height="1.57" transform="translate(73.97 398.15) rotate(-85.42)"/>
  <path class="cls-1" d="M391.2,57.8l-.06,0-.08-.07-.06,0,.12.08-.06,0-.12-.09-.05,0,.13.1L391,58l-.13-.1-.06,0,.2.14h0l-.22.11.05,0,.15-.08.06,0-.16.07.06,0,.13-.07,0,0-.13.07.05,0,.1,0,.05,0-.09,0,.16.11,0,.05-.17-.11v.11l0,0v-.11l-.05,0,0,.15-.05,0v-.14l-.05,0,0,.17-.05,0,0-.17,0,0,0,.24h0l-.2-.13v.06l.15.09v.07l-.14-.09v.06l.12.08v.06l-.12-.08v.07l.09,0v.07l-.09-.06,0,.2h-.06l0-.19-.1,0v-.07l.1,0v-.06l-.14.06v-.07l.13-.06v-.06l-.16.07v-.07l.15-.06v-.06l-.23.09h0l0-.24-.06,0v.17l-.06,0v-.18l-.05,0v.15l-.06,0v-.14l-.06,0v.1l-.06,0v-.11l-.18.09,0,0,.18-.09-.09-.06.06,0,.09.06,0,0-.12-.09.06,0,.12.09.06,0-.14-.1.06,0,.14.1.05,0L390,58h0l.22-.11,0,0-.15.08-.06,0,.16-.08-.05,0-.13.07-.06,0,.13-.06-.05,0-.1,0-.05,0,.1-.06-.17-.11,0-.05.16.12v-.11l.06,0,0,.1.06,0v-.15l.06,0,0,.15.05,0,0-.17,0,0,0,.17.05,0,0-.24h0l.21.13v-.06l-.14-.09v-.07l.15.1V57.5l-.12-.07v-.07l.13.08v-.06l-.09-.06v-.07l.1.06v-.19h.06v.2l.1,0v.07l-.1,0v.06l.14,0v.06l-.13.06v.06l.16-.07v.07l-.16.07v.06l.23-.1h0v.24l.05,0v-.17l.06,0v.17l.06,0v-.14l.06,0v.14l0,0V57.6l.06,0v.11l.18-.09,0,.06-.18.08Zm-.56.54,0-.18-.1-.06v.08l-.07,0v.11Zm-.2-.21-.07,0v-.08l-.1.05v.18l.16-.07ZM390.1,58l.15.11.1,0-.06,0,.07,0-.1-.06Zm.22-.31,0,.18.09.06v-.07l.06,0v-.11Zm.2.21.07,0v.08l.1-.05v-.18l-.17.07Zm.19.05-.1,0,.07.05-.07,0,.09.07.16-.09Z" transform="translate(-227.53 -44.46)"/>
  <rect class="cls-3" x="387.07" y="56.11" width="1.54" height="1.36" transform="translate(72.75 394.4) rotate(-85.42)"/>
  <path class="cls-1" d="M388.47,56.61l-.05,0-.08-.05,0,0,.1.07-.05,0-.1-.08-.05,0,.12.09-.05,0-.12-.09-.05,0,.17.13h0l-.19.1.05,0,.13-.07.05,0-.14.07,0,0,.11-.06.05,0-.11.06,0,0,.08,0,.05,0-.08,0,.14.1,0,0-.14-.09v.09l-.05,0v-.1l0,0,0,.13,0,0v-.13l0,0,0,.15-.05,0,0-.15,0,0,0,.21h0l-.18-.12v.06l.13.08v.05l-.13-.08v.06l.11.06v.06l-.1-.07v.06l.08.05v0l-.08,0,0,.17h-.05l0-.17-.09,0v-.06l.09,0v0l-.12,0v-.06l.12,0v-.05l-.14.06v-.06l.14-.06v-.05l-.19.08h0v-.21l-.05,0v.14l-.06,0V57l-.05,0v.13l-.06,0V57l-.05,0v.1l-.05,0v-.1l-.15.08,0,0,.16-.07-.08-.06.05,0,.08.06.05,0-.1-.07,0,0,.1.08.05,0-.12-.08.05,0,.12.09,0,0-.17-.13h0l.19-.1-.05,0-.13.07-.05,0,.14-.07,0,0-.11.06-.05,0,.11-.06,0,0-.08,0-.05,0,.08,0-.14-.1,0,0,.14.1v-.1l.05,0v.1l0,0,0-.13,0,0v.12l0,0,0-.15.05,0,0,.14,0,0,0-.21h0l.18.12v-.06l-.13-.08v-.05l.13.08v-.06l-.11-.06v-.06l.1.07v-.06l-.08-.05v0l.08,0,0-.17h.05l0,.17.09,0v.06l-.09,0v0l.12,0v.06l-.12,0v0l.14-.06v.06l-.14.06v.05l.19-.08h0v.21l.05,0v-.15l.06,0v.15l.05,0v-.13l0,0v.12l.05,0v-.09l.05,0v.1l.15-.08,0,0-.16.07Zm-.49.47,0-.15-.08-.06v.07l-.05,0V57Zm-.17-.18-.07,0v-.07l-.09,0v.16l.15-.07Zm-.3-.14.13.09.09,0-.06,0,.06,0-.08-.05Zm.19-.27,0,.16.08.05v-.07l.05,0v-.1Zm.17.18.07,0v.06l.09,0v-.16l-.15.07Zm.17,0-.08,0,.05,0-.06,0,.08.05.14-.07Z" transform="translate(-227.53 -44.46)"/>
  <rect class="cls-3" x="384.89" y="51.43" width="1.19" height="1.05" transform="translate(75.4 387.61) rotate(-85.42)"/>
  <path class="cls-1" d="M386,51.82l0,0-.06-.05,0,0,.07.06,0,0-.07-.06,0,0,.09.06,0,0-.09-.07,0,0,.13.1h0l-.14.07,0,0,.1-.06,0,0-.1.05,0,0,.09-.05,0,0-.08,0,0,0,.07,0,0,0-.06,0,.11.07,0,0-.11-.08v.07l0,0v-.07l0,0v.1l0,0v-.09l0,0,0,.12,0,0v-.11l0,0,0,.16h0l-.14-.09v0l.09.06v.05l-.1-.07v0l.08.05v0l-.08-.05v0l.07,0v0l-.06,0v.14h0v-.13l-.07,0v0l.07,0v0l-.09,0v0l.09,0v0l-.11,0v0l.11,0v0l-.15.06h0v-.16l0,0v.11l0,0V52.1h0v.1l0,0v-.1l0,0v.07l0,0v-.07l-.12.06,0,0,.12-.06-.06,0,0,0,.06,0,0,0-.08-.06,0,0,.08.06,0,0-.09-.07,0,0,.09.07,0,0-.13-.09h0l.15-.08,0,0-.1.05,0,0,.1-.06,0,0-.08,0,0,0,.09,0,0,0-.06,0,0,0,.07,0-.11-.08,0,0,.11.08V51.6l0,0v.07l0,0v-.09l0,0v.1l0,0v-.11l0,0v.12l0,0,0-.16h0l.14.09v0l-.1-.07v0l.09.06v0l-.09,0v0l.08.06v0l-.06,0v0l.07,0v-.13h0v.14l.07,0v0l-.07,0v0l.09,0v.05l-.09,0v.05l.11-.05v0l-.1.05v0l.15-.07h0v.17l0,0v-.11l0,0v.11l0,0V51.7l0,0v.09h0v-.08l0,0v.08l.12-.06v0l-.12.05Zm-.37.36v-.12l-.06,0v0l0,0v.08Zm-.14-.14,0,0V52l-.07,0v.12l.12,0Zm-.22-.11.09.08.07,0,0,0,0,0-.06,0Zm.14-.21v.13l.06,0v0l.05,0v-.07Zm.13.15.05,0v0l.07,0v-.13l-.11,0Zm.13,0-.06,0,0,0-.05,0,.06,0,.11-.06Z" transform="translate(-227.53 -44.46)"/>
  <rect class="cls-3" x="381.78" y="55.27" width="1.32" height="1.16" transform="translate(68.72 388.15) rotate(-85.42)"/>
  <path class="cls-1" d="M383,55.69l0,0-.07,0,0,0,.09.06,0,0-.09-.06,0,0,.1.07,0,0-.11-.07,0,0,.15.1h0l-.16.09,0,0,.11-.06,0,0-.12.06,0,0,.1,0,0,0-.1.05,0,0,.07,0,0,0-.07,0,.12.08,0,0-.12-.09v.08l0,0v-.08l0,0v.11l0,0v-.11l0,0v.12l0,0V56l0,0,0,.18h0l-.15-.09v0l.1.07v.05l-.11-.07v0l.09.06v0l-.09-.06v.05l.07,0v0l-.07,0v.14h-.05l0-.15-.08,0v0l.08,0v-.05l-.1,0v0l.1,0v-.05l-.12.06v0l.11-.05v0l-.17.07h0V56l0,0v.13l0,0V56l-.05,0v.11l0,0V56l0,0v.08l0,0v-.09l-.14.07,0,0,.14-.06-.07,0,.05,0L382,56l0,0-.08-.07,0,0,.09.06,0,0-.1-.07,0,0,.1.07,0,0-.14-.1h0l.16-.09,0,0-.11.06,0,0,.11-.06,0,0-.09.05,0,0,.09,0,0,0-.07,0,0,0,.07,0-.12-.08,0,0,.12.09v-.08l0,0v.09l0,0v-.11l0,0v.11l0,0,0-.13,0,0,0,.12,0,0,0-.18h0l.15.1v0l-.11-.07v0l.11.07v0l-.1-.06v-.05l.09.06v0l-.07,0v-.05l.07,0v-.14h0v.15l.07,0v0l-.07,0v0l.1,0v0l-.1,0v.05l.12-.05v0l-.12,0v0l.16-.07h0v.18l.05,0v-.13l.05,0v.13l0,0v-.11l0,0v.11l.05,0v-.08l0,0v.08l.13-.07,0,0-.13.07Zm-.41.41V56l-.06,0V56l-.05,0V56Zm-.15-.16-.05,0v-.06l-.08,0v.14l.12-.06Zm-.25-.12.11.08.07,0,0,0,0,0-.06-.05Zm.16-.23,0,.14.07,0v-.06l0,0v-.09Zm.15.16,0,0v.05l.07,0v-.14l-.13.06Zm.14,0-.07,0,0,0-.05,0,.07,0,.12-.06Z" transform="translate(-227.53 -44.46)"/>
  <rect class="cls-3" x="379.07" y="53.95" width="1.07" height="1.22" transform="translate(-230.79 -12) rotate(-4.87)"/>
  <path class="cls-1" d="M380.07,54.33l0,0-.07,0,0,0,.08,0,0,0-.09-.05,0,0,.11.05,0,0-.1-.06,0,0,.15.07h0l-.13.1,0,0,.09-.07,0,0-.09.07,0,0,.08-.06,0,0-.08.06,0,0,.06,0,0,0-.06.05.13,0,0,0-.12-.06v.08l0,0v-.08l0,0v.1l0,0v-.09l0,0v.11h0v-.12l0,0v.17h0l-.15-.07v0l.11.05v0l-.11,0v0l.09,0v0l-.09,0v0l.07,0v0l-.07,0v.14h0V55l-.06,0v0l.07,0v0l-.08.05v0l.09-.06v0l-.1.06v0l.1-.06v0l-.14.09h0l0-.17,0,0,0,.12,0,0v-.12l0,0v.1l0,0,0-.1,0,0v.08l0,0v-.07l-.11.08,0,0,.11-.07-.07,0,0,0,.07,0,0,0-.09,0,0,0,.09,0,0,0-.1-.06,0,0,.1,0,0,0-.15-.08h0l.14-.1,0,0-.09.07h0l.09-.08h0l-.08.06,0,0,.08-.06,0,0-.06,0,0,0,.06-.05-.12-.06,0,0,.12,0v-.07l0,0v.07l0,0v-.1l0,0v.1l0,0v-.12l0,0v.12l0,0v-.17h0l.15.06v0l-.11,0v0l.1,0v0l-.09,0v0l.1,0v0l-.07,0v0l.07,0V54h0v.13l.06,0v.05l-.07,0v0l.08-.06v0l-.08.05v0l.1-.07v.05l-.1.06v0l.14-.09h0l0,.17,0,0v-.11l0,0v.12l0,0,0-.1,0,0v.1l0,0v-.07l0,0v.08l.12-.08,0,0-.11.08Zm-.31.44v-.13l-.07,0v0l0,0v.08Zm-.16-.12-.05,0v-.05l-.07,0,0,.13.1-.07Zm-.25-.07.11.05.06,0,0,0,0,0-.07,0Zm.11-.24v.12l.06,0v-.06l.05,0v-.07Zm.16.12,0,0v.06l.06-.05v-.12l-.11.07Zm.14,0-.07.05.05,0,0,0,.07,0,.1-.08Z" transform="translate(-227.53 -44.46)"/>
  <rect class="cls-3" x="376.29" y="55.81" width="1.52" height="1.72" transform="translate(-230.98 -12.21) rotate(-4.87)"/>
  <path class="cls-1" d="M377.71,56.36l-.06,0-.09,0-.05,0,.13.06-.06,0-.12-.07,0,0,.15.07-.06,0-.14-.08-.05,0,.21.1h0l-.19.15.05,0,.14-.1.05,0-.13.1.06,0,.11-.08.06,0-.12.08.06,0,.08-.07.06,0-.09.06.18.08,0,0-.17-.08v.11l-.06,0V57l-.05,0v.14l-.06,0v-.14l-.05,0V57l-.06,0v-.17l-.05,0v.23h0L377.1,57V57l.15.06v.07l-.16-.07v.06l.13.06v.06l-.13-.06v.06l.1,0v.07l-.1,0,0,.19h-.06v-.19l-.09.06v-.06l.09-.06v-.06l-.12.08v-.07l.12-.07v-.06l-.14.09v-.07l.14-.09V57l-.2.13h0l0-.23-.05,0,0,.17-.05,0,0-.16-.05,0,0,.14-.05,0,0-.14-.05,0v.11l-.05,0v-.1l-.16.11,0,0,.16-.11-.1-.05.05,0,.1.05,0,0-.13-.06.05,0,.13.07.05,0-.15-.07,0,0,.15.08.05,0-.21-.1h0l.19-.14-.06,0-.13.1-.06,0,.14-.1-.06,0-.11.08-.06,0,.11-.08-.05,0-.08.07-.06,0,.08-.06-.17-.08,0-.06.18.09v-.11l.06,0v.1l.06,0v-.14l.06,0v.15l.05,0v-.17l.06,0v.17l.05,0v-.23h0l.22.09v-.06l-.15-.06v-.07l.16.07v-.06l-.13-.06v-.06l.13.06v-.06l-.1,0V56l.09,0v-.19H377l0,.19.09-.06V56l-.09.06v.06l.12-.08v.07l-.11.07v.06l.14-.09v.07l-.14.09v.06l.2-.13h0l0,.23.05,0,0-.17.06,0,0,.16.05,0,0-.14,0,0,0,.14,0,0,0-.11.06,0v.11l.16-.11,0,.05-.16.11Zm-.45.61v-.18l-.1,0v.08l-.07,0v.11ZM377,56.8l-.06,0v-.08l-.09.06,0,.18.15-.1Zm-.35-.1.16.08.09-.06-.07,0,.06,0-.1,0Zm.16-.34v.18l.09,0v-.07l.07,0v-.11Zm.23.17.06,0v.08l.09-.06,0-.18-.14.1Zm.19,0-.09.06.07,0-.06,0,.09.05.14-.11Z" transform="translate(-227.53 -44.46)"/>
  <rect class="cls-3" x="373.78" y="56.94" width="1.23" height="1.39" transform="translate(-231.07 -12.44) rotate(-4.87)"/>
  <path class="cls-1" d="M374.92,57.38l0,0-.08,0,0,0,.11.05-.05,0-.1,0,0,0,.12.06,0,0-.12-.06,0,0,.17.09h0l-.15.12,0,0,.11-.09.05,0-.11.08,0,0,.09-.07.05,0-.09.07,0,0,.07,0,0,0-.07.05.14.07,0,0-.14-.07V58l0,0v-.09l0,0V58l-.05,0v-.11l0,0v.13l-.05,0v-.13l0,0V58h0l-.18-.08v.05l.12,0V58l-.13-.05V58l.1,0v0l-.11,0v0l.07,0v.05l-.08,0v.15h0l0-.16-.07,0v0l.07-.05v0l-.1.07v-.06l.09-.06V58l-.12.08v0l.11-.08v0l-.16.1h0l0-.19,0,0V58l0,0v-.13l0,0V58l0,0,0-.12,0,0V58l0,0V58l-.13.09,0,0,.13-.09-.08,0,0,0,.08,0,0,0-.1-.06,0,0,.1.06,0,0-.12-.06,0,0,.12.06,0,0-.17-.08h0l.15-.12,0,0-.11.08,0,0,.1-.08,0,0-.09.07-.05,0,.09-.07,0,0-.07,0-.05,0,.07-.06-.14-.06,0,0,.14.06V57.3l0,0v.09l0,0v-.12l0,0v.12l0,0v-.14l0,0v.13l0,0v-.19h0l.18.08v0l-.12-.05v-.06l.12.06v0l-.11,0v-.05l.1.05v-.05l-.08,0v-.06l.08,0v-.16h0l0,.15.07,0v.05l-.07,0v0l.09-.06v0l-.1.06v0l.12-.07v.05l-.11.07v0l.16-.1h0l0,.19,0,0,0-.13,0,0,0,.13,0,0,0-.11.05,0v.11l0,0v-.09l0,0v.09l.13-.09,0,0-.12.09Zm-.36.5v-.15l-.07,0v.06l-.06,0v.09Zm-.18-.14-.05,0v-.06l-.07,0,0,.14.11-.08Zm-.28-.08.12.06.07,0-.05,0,.05,0-.08,0Zm.12-.27v.14l.08,0v-.06l.06,0v-.08Zm.18.14.06,0v.07l.07-.05v-.15l-.12.08Zm.16,0-.07.05.05,0-.05,0,.08,0,.12-.08Z" transform="translate(-227.53 -44.46)"/>
  <rect class="cls-3" x="371.04" y="55.74" width="1.01" height="1.14" transform="translate(-230.97 -12.68) rotate(-4.87)"/>
  <path class="cls-1" d="M372,56.1l0,0-.06,0,0,0,.09,0,0,0-.08,0,0,0,.1.05,0,0-.1-.05,0,0,.14.07h0l-.12.09,0,0,.09-.07,0,0-.09.07,0,0,.08-.06,0,0-.08,0,0,0,0,0,0,0-.05,0,.11.05v0l-.12-.06v.07l0,0v-.07h0v.09l0,0v-.09l0,0v.11l0,0v-.11h0v.16h0l-.15-.07v0l.1,0v.05l-.1-.05v0l.09,0v0l-.08,0v0l.07,0v0l-.07,0,0,.12h0v-.13l-.06,0v0l.06,0v0l-.08,0v0l.08,0v0l-.09.06v0l.09-.05v0l-.14.08h0v-.15l0,0,0,.11,0,0v-.11l0,0v.09l0,0v-.09l0,0v.07l0,0v-.07l-.11.07,0,0,.1-.07-.06,0,0,0,.06,0,0,0-.08,0,0,0,.09,0,0,0-.1-.05,0,0,.09,0,0,0-.14-.08h0l.13-.09,0,0-.09.07,0,0,.09-.06,0,0-.07.06,0,0,.07-.06,0,0-.06.05,0,0,.06,0-.12-.06,0,0,.11.05V56l0,0v.07l0,0V56l0,0v.1h0v-.11l0,0v.11l0,0v-.16h0l.14.06v0l-.1,0v0l.11,0v0l-.08,0v0l.09,0v0l-.07,0v0l.06,0v-.13h0v.12l.06,0v0l-.06,0v0l.07-.05v0l-.08.05v0l.1-.06v0l-.09.06v0l.13-.09h0l0,.16,0,0v-.11l0,0,0,.11,0,0V56l0,0v.1l0,0V56l0,0V56L372,56l0,0-.11.07Zm-.29.41v-.12l-.06,0v0l-.05,0v.07Zm-.15-.12,0,0v-.05l-.06,0v.12l.1-.07Zm-.23-.06.1.05.06,0,0,0,0,0-.06,0Zm.1-.22v.11l.07,0v0l0,0v-.07Zm.15.11,0,0v.05l.06,0,0-.11-.1.06Zm.13,0-.06,0,0,0,0,0,.07,0,.09-.07Z" transform="translate(-227.53 -44.46)"/>
  <rect class="cls-3" x="367.69" y="51.79" width="1.6" height="1.82" transform="translate(-230.67 -12.96) rotate(-4.87)"/>
  <path class="cls-1" d="M369.19,52.37l-.06,0-.1-.06,0,0,.13.07-.05,0-.14-.07-.05,0,.16.08-.06,0-.15-.08-.05,0,.22.11h0l-.2.15.06,0,.13-.11.07,0-.14.11,0,0,.12-.09.06,0-.12.09.06,0,.09-.07.06,0-.09.07.19.09,0,0-.18-.09v.12l-.06,0V53L369,53v.15l-.06,0v-.15l-.06,0v.18l-.06,0v-.18l-.06,0,0,.25h0l-.23-.1v.06l.16.07v.07l-.16-.07v.06l.14.06v.07l-.14-.06v.06l.11,0v.07l-.1,0,0,.2h-.06l0-.2-.09.06V53.4l.1-.06v-.07l-.13.08v-.06l.12-.08v-.07l-.15.1v-.07l.15-.09V53l-.21.14h0l0-.25-.05,0,0,.17-.06,0,0-.18-.05,0,0,.15-.06,0v-.15l-.06,0,0,.11-.06,0v-.12l-.17.12,0-.05.16-.11-.1-.06.06,0,.1,0,.05,0-.13-.07.05,0,.14.07.05,0-.16-.08.06,0,.15.08,0,0-.22-.11h0l.2-.15-.05,0-.14.11-.07,0,.15-.11-.06,0-.12.09-.06,0,.12-.09-.06,0-.09.07-.06,0,.09-.07-.19-.08,0-.06.18.09v-.11l.06,0v.11l.06,0v-.14l.07,0v.15l.06,0V52.3l.06,0v.18l.06,0,0-.26h0l.23.1v-.06l-.16-.07v-.06l.16.07v-.07l-.14-.06v-.06l.14.06v-.07l-.11,0V52l.1,0,0-.2h.06l0,.2.09-.06V52l-.09.06v.06l.13-.08v.07l-.12.08v.06l.15-.1v.07l-.15.1v.06l.21-.14h0l0,.25,0,0,0-.18.06,0,0,.18.05,0,0-.15.06,0,0,.15.05,0,0-.12.06,0v.11l.17-.12,0,.05-.16.12Zm-.48.64v-.18l-.1,0v.08l-.08,0v.11Zm-.24-.18-.06.05V52.8l-.1.06,0,.19.15-.1Zm-.37-.1.17.08.09-.06-.07,0,.06-.05-.1,0Zm.17-.35v.18l.1,0v-.08l.07,0v-.11Zm.24.18.07-.05v.08l.1-.06,0-.19-.16.11Zm.2,0-.09.06.07,0-.06,0,.1,0,.15-.11Z" transform="translate(-227.53 -44.46)"/>
  <rect class="cls-3" x="365.2" y="54.43" width="1.54" height="1.74" transform="translate(-230.9 -13.16) rotate(-4.87)"/>
  <path class="cls-1" d="M366.64,55l-.05,0-.1-.05-.05,0,.13.07-.05,0-.13-.06-.05,0,.15.08-.05,0-.15-.08-.05,0,.21.11h0l-.19.15.05,0,.14-.1.06,0-.14.1.06,0,.11-.09.06,0-.12.08.06,0,.08-.07.06,0-.08.07.17.08,0,.05-.18-.08v.1l-.06,0v-.11l-.06,0v.15l-.06,0v-.14l0,0v.17l-.06,0v-.17l-.06,0,0,.24h0l-.22-.1v.06l.16.07v.06l-.15-.06v.06l.13.05v.07l-.13-.06v.06l.1,0V56l-.1,0v.19H366l0-.19-.09.06V56l.09,0v-.06l-.12.07v-.06l.12-.08v-.06l-.14.09v-.06l.15-.09v-.06l-.2.13h0l0-.24-.05,0,0,.17,0,0,0-.17-.05,0,0,.14-.06,0v-.14l-.05,0v.1l-.05,0,0-.11-.16.12,0,0,.16-.11-.09-.05.05,0,.09.05.05,0-.12-.07.05,0,.13.07.05,0-.15-.07.05,0,.15.08,0,0-.22-.1h0l.2-.15-.06,0-.13.1-.06,0,.14-.1-.06,0-.11.09-.06,0,.11-.08,0,0-.09.07-.06,0,.09-.07-.18-.08,0-.05.17.08v-.11l.06,0V55l.06,0V54.9l.06,0v.14l.06,0v-.17l.06,0v.17l0,0v-.24h0l.22.1V55l-.15-.07v-.06l.16.06v-.06l-.13,0V54.7l.13.06V54.7l-.1,0v-.07l.1,0,0-.19h.06v.2l.09-.06v.06l-.09.06v.06l.12-.07v.06l-.12.08v.06l.15-.09v.06l-.14.09V55l.2-.13h0l0,.24.05,0,0-.16.06,0,0,.17.05,0,0-.14.05,0,0,.15,0,0v-.11l.05,0v.1l.16-.11,0,0-.16.11Zm-.45.62v-.18l-.1,0v.07l-.07,0v.11Zm-.23-.17-.07,0V55.4l-.09.06,0,.18.15-.1Zm-.36-.1.16.08.09-.06-.07,0,.06,0-.1,0Zm.16-.34v.18l.1,0v-.07l.07,0v-.11Zm.23.17.06,0v.08l.09-.07,0-.17-.15.09Zm.19,0-.08.06.06,0-.06,0,.1.05.14-.11Z" transform="translate(-227.53 -44.46)"/>
  <rect class="cls-3" x="278.25" y="56.76" width="1.16" height="1.32" transform="translate(-232.43 -10.3) rotate(-6.95)"/>
  <path class="cls-1" d="M279.33,57.17l0,0-.08,0,0,0,.09,0,0,0-.09,0,0,0,.12.06,0,0-.12-.06,0,0,.17.08h0l-.14.11,0,0,.1-.08,0,0-.1.08.05,0,.08-.07.05,0-.09.07h0l.07,0,0,0-.06.05.13.06v0l-.14-.06v.08l-.05,0v-.08l-.05,0v.11l0,0v-.1l0,0v.12h-.05v-.13l0,0,0,.18h0l-.17-.06v0l.12.05v0l-.12,0v0l.11,0v0l-.1,0v.05l.07,0V58l-.08,0,0,.14h0l0-.15-.07,0v0l.06,0v0l-.09.06v0l.09-.06v0l-.11.08v0l.1-.07v-.05l-.15.11h0l0-.18,0,0,0,.13,0,0,0-.13,0,0v.11l0,0,0-.11,0,0v.08l0,0,0-.08-.12.08,0,0,.12-.09-.08,0,0,0,.08,0,0,0-.1,0,0,0,.1.05,0,0-.12-.06,0,0,.12.06,0,0-.16-.07h0l.14-.12,0,0-.1.08h-.05l.1-.09h0l-.08.06h0l.09-.07-.05,0-.06.05,0,0,.06,0-.14-.06,0,0,.14.06v-.08l0,0v.08l0,0v-.11l.05,0v.11l0,0v-.13l0,0v.12l.05,0,0-.18h0l.17.07v-.05l-.11,0v0l.12,0v0l-.1,0V57l.1,0v0l-.07,0v0l.08,0,0-.15h0l0,.15.07,0v0l-.07.05v0l.09-.06V57l-.08.06v.05l.11-.07v0l-.1.08v0l.15-.1h0l0,.18,0,0,0-.13,0,0,0,.13,0,0,0-.1,0,0,0,.1,0,0,0-.08,0,0,0,.08.11-.09,0,0-.12.09Zm-.33.48v-.14l-.08,0v.06l-.06,0v.08Zm-.18-.13-.05,0V57.5l-.06,0,0,.13.11-.08Zm-.27-.06.12,0,.07,0-.06,0,.05,0-.08,0Zm.11-.26v.13l.08,0v0l.06,0v-.09Zm.18.12.05,0v.06l.07-.05,0-.14-.11.08Zm.15,0-.07.05.05,0,0,0,.07,0,.11-.08Z" transform="translate(-227.53 -44.46)"/>
  <rect class="cls-3" x="275.5" y="63.7" width="1.84" height="2.09" transform="translate(-233.33 -10.54) rotate(-6.95)"/>
  <path class="cls-1" d="M277.21,64.34l-.06,0-.12-.06-.06,0,.16.07-.07,0-.15-.08-.06,0,.18.08-.06,0-.18-.09-.06,0,.26.12h0l-.22.18.06,0,.16-.13.07,0-.15.13.06,0,.14-.1.07,0L277,65l.07,0,.1-.08.07,0-.1.08.22.1,0,.06-.21-.09v.13l-.08,0v-.12L277,65v.17l-.07,0V65l-.07,0,0,.2-.08,0V65l-.07,0,0,.29h0l-.27-.11v.07l.19.08v.07l-.19-.07v.07l.16.06v.08l-.16-.06v.07l.13,0v.07l-.12,0,0,.23h-.07l0-.23-.11.07v-.08l.11-.07v-.07l-.14.1v-.08l.14-.1v-.07l-.17.11V65.3l.17-.12v-.07l-.23.17h0l-.05-.29-.06.05,0,.19-.07,0,0-.2-.06,0,0,.16-.06,0,0-.17-.06,0,0,.12-.07,0,0-.13-.18.14,0-.05.18-.14-.11-.06.06,0,.11,0,.06,0-.15-.08.06,0,.15.07.06,0-.18-.09.06,0,.18.09.06,0-.26-.12h0l.22-.18-.06,0-.16.13-.07,0,.16-.13-.07,0-.13.11-.07,0,.13-.11-.07,0-.1.08-.07,0,.1-.08-.21-.09,0-.06.22.09v-.13l.07,0v.13l.07,0,0-.17.07,0,0,.17.06,0v-.21l.07,0v.21l.07,0,0-.28h0l.26.1v-.07l-.19-.07v-.08l.19.07v-.07l-.16-.06V64l.16.06V64l-.12,0V63.9l.12.05,0-.24h.07l0,.23.1-.08v.08l-.1.07v.08l.14-.1v.07l-.15.1v.08l.17-.12v.08l-.17.11v.07l.24-.16h0l0,.28.06,0,0-.2.06-.05,0,.2.06,0,0-.17.06,0,0,.17.06,0,0-.13.06-.05,0,.13.19-.14,0,.06-.19.14Zm-.52.76,0-.21-.12,0v.09l-.09,0,0,.13Zm-.28-.19-.08,0v-.09l-.11.08,0,.21.17-.12ZM276,64.8l.19.09.11-.08-.09,0,.07-.06-.12,0Zm.17-.41,0,.21.12.05v-.09l.09,0,0-.13Zm.29.2.07-.06,0,.1.1-.08,0-.21-.18.12Zm.23,0-.1.08.08,0-.07.06.12,0,.16-.14Z" transform="translate(-227.53 -44.46)"/>
  <rect class="cls-3" x="271.98" y="60.72" width="1.5" height="1.7" transform="translate(-232.97 -11.01) rotate(-6.95)"/>
  <path class="cls-1" d="M273.38,61.25l-.05,0-.1,0-.05,0,.13.06-.05,0-.13-.06-.05,0,.15.07-.05,0-.15-.08,0,0,.21.1h0l-.18.15.05,0,.13-.11.06,0-.13.1.05,0,.11-.09.06,0-.11.09.06,0,.08-.06.06,0-.09.07.18.07,0,0-.18-.07V62l-.06,0v-.1l-.06,0V62l-.06,0v-.14l-.05,0v.17l-.06,0v-.16l-.05,0,0,.23h0l-.22-.08v.05L273,62v.07l-.16-.06v.06l.13.05v.06l-.13,0v.06l.1,0v.07l-.1,0,0,.19h-.06l0-.18-.09.06v-.07l.09-.06v-.06l-.11.08v-.06l.12-.08V62l-.14.1V62l.14-.09v-.06l-.19.14h0l0-.23,0,0,0,.16-.05,0,0-.16-.05,0,0,.14-.05,0,0-.14-.05,0,0,.1-.05,0,0-.1-.15.11,0,0,.15-.12-.1,0,.05,0,.1,0,.05,0-.13-.06,0,0,.13.06.05,0-.15-.07.05,0,.15.07,0,0-.21-.1h0l.18-.14-.05,0-.13.11-.06,0,.13-.1,0,0-.11.09-.06,0,.11-.09-.06,0-.08.06-.06,0,.08-.07-.17-.07,0-.05.18.07v-.1l.06,0v.11l.06,0V61.2l.06,0v.14l.05,0v-.17l.06,0v.16l.05,0,0-.23h0l.22.09v-.06l-.15-.06v-.06l.16.06v-.06l-.13,0V61l.13,0V61l-.09,0v-.07l.1,0,0-.19h.06l0,.19.09-.06v.06l-.09.06V61l.11-.08V61l-.12.08v.06l.14-.1v.07l-.13.09v.06l.19-.14h0l0,.24.05,0,0-.16.06,0,0,.16.05,0,0-.14.05,0,0,.14.05,0,0-.1.05,0,0,.11.15-.12,0,.05-.15.11Zm-.43.62v-.18l-.1,0v.08l-.07,0v.1Zm-.23-.16-.06,0v-.08l-.09.07,0,.17.15-.1Zm-.35-.09.16.07.09-.06-.07,0,.06-.05-.1,0Zm.15-.34v.18l.1,0v-.07l.07,0v-.1Zm.23.17.06-.05v.08l.08-.07,0-.17-.15.1Zm.19,0-.09.06.07,0-.06.05.1,0,.14-.11Z" transform="translate(-227.53 -44.46)"/>
  <rect class="cls-3" x="269.1" y="64.15" width="1.5" height="1.71" transform="translate(-233.41 -11.33) rotate(-6.95)"/>
  <path class="cls-1" d="M270.49,64.67l-.05,0-.09,0-.05,0,.13.06-.05,0-.13-.06-.05,0,.15.07-.05,0-.15-.07,0,0,.21.09h0l-.18.15.05,0,.13-.1.06,0-.13.11.05,0,.11-.09.06,0-.11.09.05,0,.09-.07.05,0-.08.06.18.08,0,0-.18-.07v.1l-.06,0v-.11l-.05,0v.14l-.06,0v-.14l-.06,0,0,.16-.06,0v-.16l-.06,0,0,.24h0l-.21-.09v.06l.16.06v.06l-.15-.06v.06l.13,0v.06l-.14,0v.06l.1,0v.06l-.1,0,0,.18h-.05l0-.19-.08.06v-.06l.09-.06v-.06l-.12.08v-.06l.11-.08v-.06l-.14.09v-.06l.14-.09V65.3l-.19.13h0l0-.23,0,0,0,.16-.05,0,0-.17-.05,0,0,.14-.05,0,0-.14-.05,0,0,.11-.05,0,0-.11-.15.12,0-.05.16-.11-.1,0,.05,0,.1,0,0,0-.12-.06.05,0,.12.06.05,0-.15-.07,0,0,.15.07.05,0-.21-.1h0l.18-.15-.06,0-.12.1-.06,0,.13-.11-.06,0-.11.09-.05,0,.1-.08,0,0-.08.07-.06,0,.08-.06-.17-.08,0,0,.17.08v-.11l.06,0v.1l.06,0,0-.14.06,0v.14l.06,0,0-.16.06,0,0,.17,0,0,0-.23h0l.22.08v-.06l-.15-.06v-.06l.15.06v-.06l-.13,0v-.06l.13,0v-.06l-.1,0v-.06l.09,0,0-.19h.06l0,.19.09-.06v.06l-.08.06v.06l.12-.08v.06l-.12.08v.06l.13-.09v.06l-.13.1v0l.2-.13h0l0,.23.05,0,0-.17.05,0,0,.17.05,0,0-.14.05,0,0,.13,0,0v-.11l.05,0v.1l.16-.11,0,0-.15.11Zm-.42.62v-.17l-.1,0v.07l-.08,0,0,.11Zm-.23-.16-.06,0V65.1l-.09.06,0,.18.14-.1Zm-.35-.08.16.07.08-.06-.06,0,.05,0-.09,0Zm.14-.34,0,.17.1.05v-.08l.07,0v-.11Zm.23.16.07,0v.07l.08-.06,0-.17-.14.1Zm.2,0L270,65l.07,0L270,65l.1,0,.13-.11Z" transform="translate(-227.53 -44.46)"/>
  <rect class="cls-3" x="265.75" y="64.81" width="1.8" height="2.04" transform="translate(-233.53 -11.71) rotate(-6.95)"/>
  <path class="cls-1" d="M267.42,65.43l-.06,0-.11-.06-.06,0,.15.07-.06,0-.15-.07-.06,0,.18.08-.06,0L267,65.6l-.05,0,.25.12h0l-.22.18.07,0,.15-.12.07,0-.16.12.07,0,.13-.1.07,0-.13.1.07,0,.09-.08.07,0-.09.08.2.09,0,.06-.21-.09v.13l-.07,0v-.13l-.07,0,0,.17-.07,0v-.17l-.07,0,0,.19-.07,0,0-.19L267,66l0,.28h0l-.26-.1v.07l.18.07v.07l-.18-.07v.07l.16.06v.08l-.16-.06v.07l.12,0v.08l-.12,0,0,.23h-.07l0-.23-.11.07v-.07l.11-.07v-.08l-.14.1V66.5l.14-.1v-.07l-.16.11v-.07l.16-.12v-.06l-.23.16h0l0-.28-.06,0,0,.2-.07,0,0-.19,0,0,0,.16-.06,0,0-.17-.06.05,0,.12-.06,0,0-.13-.18.14,0,0,.18-.14-.12,0,.07,0,.11,0,.06,0-.16-.07.07-.05.15.08.05-.05-.18-.08.07,0,.17.09.06,0-.26-.12h0l.22-.18-.06,0-.15.13-.07,0,.15-.13-.07,0-.13.1-.07,0,.14-.1-.07,0-.1.08-.07,0,.1-.08-.21-.09,0-.06.21.09v-.13l.07,0v.13l.06,0v-.17l.07,0v.17l.07,0,0-.19.07,0,0,.19.06,0,0-.28h0l.27.1v-.07l-.19-.07v-.07l.19.07v-.07l-.16-.06v-.08l.15.06v-.07l-.12,0V65l.11,0,0-.23h.06l0,.23.1-.07V65l-.1.07v.07l.13-.09v.07l-.13.1v.07l.16-.11v.07l-.17.11v.07l.23-.16h0l.05.28.05,0,0-.2.06,0,0,.19.06,0,0-.17.06,0,0,.16.06,0,0-.12.06,0,0,.13.18-.14,0,0-.18.14Zm-.51.75V66l-.12,0V66l-.09,0,0,.12Zm-.27-.19-.08.05V66l-.1.07,0,.21.17-.12Zm-.42-.11.19.09.1-.08-.08,0,.07-.06-.12,0Zm.17-.4,0,.21.11,0v-.09l.08,0v-.12Zm.28.19.07,0v.09l.11-.08,0-.2-.17.12Zm.23,0-.11.07.09,0-.07.06.11,0,.17-.13Z" transform="translate(-227.53 -44.46)"/>
  <rect class="cls-3" x="262.4" y="62.23" width="1.18" height="1.34" transform="translate(-233.21 -12.18) rotate(-6.95)"/>
  <path class="cls-1" d="M263.5,62.64l0,0-.08,0,0,0,.1.05,0,0-.1-.05,0,0,.12.05,0,0-.12,0,0,0,.17.07h0l-.14.12,0,0,.1-.08.05,0-.11.08.05,0,.08-.07.05,0-.09.06.05,0,.06-.05.05,0-.07,0,.14.06,0,0-.13-.06v.08h0V63.1l0,0v.11l-.05,0v-.1l0,0v.13l-.05,0V63l0,0,0,.18h0l-.18-.06v0l.12,0v.05l-.12-.05v.05l.1,0v0l-.1,0v0l.08,0v0l-.08,0,0,.15h-.05v-.15l-.07,0v0l.07-.05v0l-.1.06v0l.09-.07v0l-.1.07v0l.11-.07v0l-.15.11h0l0-.18,0,0,0,.13,0,0,0-.13,0,0,0,.11,0,0,0-.11,0,0,0,.08,0,0,0-.08-.12.09,0,0,.12-.09-.08,0,0,0,.08,0,0,0-.1,0,0,0,.1,0,0,0L262.6,63l0,0,.12.06,0,0-.17-.08h0l.14-.11,0,0-.1.08-.05,0,.11-.08-.05,0-.08.07-.05,0,.09-.07-.05,0-.06.06-.05,0,.07-.05-.14-.06,0,0,.14.06v-.09l0,0v.08l0,0V62.6l0,0v.11l0,0v-.13l.05,0v.13l0,0,0-.19h0l.18.07v0l-.12-.05v0l.12,0v0l-.1,0v-.05l.1,0v0l-.08,0v0l.08,0,0-.15h.05v.15l.07-.05v.05l-.07,0v0l.09-.07v.05l-.09.06v0l.1-.07v0l-.11.07v.05l.15-.11h0l0,.18,0,0,0-.12,0,0,0,.12,0,0,0-.11,0,0,0,.11,0,0,0-.08,0,0,0,.08.12-.09,0,0-.12.09Zm-.33.49V63l-.08,0V63L263,63v.08ZM263,63l-.05,0V63l-.07.05,0,.13.12-.08Zm-.28-.07.13.06.06-.05,0,0,0,0-.07,0Zm.11-.26,0,.14.07,0v-.06l0,0v-.08Zm.18.13.05,0v.06l.07,0,0-.13-.12.07Zm.15,0-.06,0,.05,0,0,0,.07,0,.11-.09Z" transform="translate(-227.53 -44.46)"/>
  <rect class="cls-3" x="258.84" y="63.21" width="1.45" height="1.64" transform="translate(-234.61 38.92) rotate(-18.01)"/>
  <path class="cls-1" d="M260.11,63.6l0,0-.1,0,0,0,.13,0,0,0-.13,0,0,0,.16,0,0,.05-.16,0,0,0,.21,0h0l-.14.17,0,0L260,64l.06,0-.11.12H260l.09-.1h.05l-.08.1.05,0,.07-.08h.06l-.07.08.18,0v0l-.18,0,0,.1-.06,0,0-.09h-.05l0,.12H260l0-.13H260l.05.15h-.06l-.05-.15h-.05l.06.21h0l-.22,0,0,.06.15,0,0,.06-.16,0,0,.06.13,0,0,.06-.13,0,0,0,.1,0,0,.06-.1,0,0,.17,0,0-.05-.17-.07.07,0-.06.07-.07,0-.06-.09.1,0-.06.09-.09,0-.06-.11.12,0-.06.12-.12,0,0-.16.16h0l-.08-.21,0,0,.05.15,0,0-.05-.15,0,0,0,.13,0,0,0-.13,0,0,0,.09,0,.05,0-.1-.12.14,0,0,.12-.13-.1,0,0,0,.1,0,0,0-.13,0,0-.05.13,0,0,0-.16,0,0,0,.16,0,0,0-.22-.06h0l.14-.17h0l-.1.12h-.06l.1-.13h-.06l-.08.11-.06,0,.08-.1H259l-.07.08-.06,0,.07-.07-.18,0v0l.18,0,0-.09H259l0,.1h.05l0-.13h.06l0,.13h.06l-.05-.15h.06l.05.15.05,0-.06-.22h0l.22,0,0-.05-.15,0,0-.06.16,0,0-.06-.13,0,0-.06.13,0,0-.06h-.1l0-.06h.1l0-.17,0,0,.05.18.07-.07,0,0-.07.08,0,.05.09-.1,0,.06-.09.1,0,0,.11-.11,0,.06-.11.11v0l.16-.16h0l.08.21,0,0,0-.15,0,0,.05.15,0,0,0-.12,0,0,0,.13,0,0,0-.1,0,0,0,.09.12-.14,0,0-.12.14Zm-.28.67-.05-.17-.1,0,0,.07h-.07l0,.1Zm-.25-.11-.05,0,0-.07-.07.08.06.15.12-.12Zm-.35,0,.17,0,.06-.07-.07,0,.05-.06-.1,0Zm.07-.34.05.16.1,0,0-.07h.07l0-.09Zm.25.11.05-.06,0,.07.07-.07-.06-.16-.12.12Zm.19,0-.07.08.07,0-.05.05.1,0,.11-.13Z" transform="translate(-227.53 -44.46)"/>
  <rect class="cls-3" x="254.37" y="60.35" width="1.77" height="2.01" transform="translate(-233.99 37.46) rotate(-18.01)"/>
  <path class="cls-1" d="M255.92,60.83l0,.06-.12,0-.05,0,.16,0-.05,0-.16,0-.05.06.19,0,0,.06-.18,0-.05,0,.27.07h0l-.18.21h.07l.12-.15.07,0-.12.15h.07l.1-.12H256l-.11.13H256l.08-.09h.07l-.08.1.22,0v.06l-.22-.05,0,.12H256l0-.12-.07,0,0,.16h-.07l-.05-.16-.06,0,.05.19-.07,0-.06-.18-.06,0,.07.27h0l-.27,0,0,.07.19,0,0,.07-.2,0,0,.06.16,0,0,.07-.16,0,0,.07.12,0,0,.07-.13,0,.07.21-.06,0-.07-.21-.09.09,0-.07.09-.09,0-.07-.12.12,0-.07.11-.12,0-.06-.13.14,0-.08.14-.13,0-.07-.19.2h0l-.1-.26,0,0,.06.18-.05.06-.06-.18,0,0L255,62l-.05.06-.06-.16,0,.06,0,.11,0,.06-.05-.12-.15.17,0-.05.15-.16-.13,0,0-.06.12,0,.05,0-.16,0,.05-.06.16,0,.05,0-.19-.05,0,0,.19,0,0,0-.26-.07h0l.18-.21-.06,0-.13.15h-.07l.12-.15-.07,0-.1.13-.07,0,.1-.12-.07,0-.07.1-.08,0,.08-.09-.22,0,0-.06.22,0,0-.12.07,0,0,.12h.07l0-.15h.07l.05.16h.07l-.06-.18h.08l0,.19h.07l-.08-.26h0l.27,0,0-.07-.19,0,0-.07.19,0,0-.07-.17,0,0-.07.16,0,0-.06-.12,0,0-.07.12,0-.07-.22.06,0,.07.22.09-.09,0,.07-.09.09,0,.06.11-.11,0,.07-.11.11,0,.07.14-.14,0,.07-.14.14,0,.07.2-.2h0l.09.26,0,0-.07-.19.05-.05.07.18,0,0,0-.16,0,0,.05.15,0,0,0-.11.05-.06,0,.12.15-.17,0,0-.15.17Zm-.35.82-.06-.2-.12,0,0,.09-.09,0,0,.12Zm-.3-.14-.06.06,0-.08-.09.09.07.2.15-.15Zm-.43,0,.2,0,.09-.09-.09,0,.06-.07-.12,0Zm.09-.42.06.2.12,0,0-.09.08,0,0-.12Zm.31.14.06-.07,0,.09.08-.1-.07-.19-.14.15Zm.22,0-.08.09.08,0-.05.07.12,0,.13-.15Z" transform="translate(-227.53 -44.46)"/>
  <rect class="cls-3" x="252.59" y="65.71" width="2" height="2.27" transform="matrix(0.95, -0.31, 0.31, 0.95, -235.77, 37.21)"/>
  <path class="cls-1" d="M254.34,66.25l-.05.06-.14,0-.05,0,.18,0-.06.06-.18,0,0,.06.21.05,0,.06-.22,0-.05.06.31.07h0l-.21.24.08,0,.14-.17h.08l-.14.17.08,0,.12-.14h.08l-.12.15h.08l.09-.1h.08l-.09.11.25.05,0,.08-.24-.06,0,.14-.08,0,0-.13-.07,0,.05.18-.09,0L254.2,67h-.07l.06.21-.09,0L254,67,254,67l.09.3h0l-.31-.05,0,.07.22,0,0,.08-.21,0,0,.08.18,0,0,.08-.18,0,0,.07.14,0,0,.08-.14,0,.08.24-.07,0-.08-.25-.1.11,0-.08.1-.1,0-.08-.13.13,0-.08.13-.13,0-.08-.16.16,0-.08.15-.16,0-.07-.22.23h0l-.11-.3,0,.06.08.21-.06.06-.07-.21-.06.06.07.18-.06.06-.06-.18-.06.06,0,.13,0,.07-.05-.14-.17.19-.06,0,.17-.18-.13,0,0-.06.14,0,.05-.06-.18,0,.06-.06.18,0,.05-.06-.21,0,.05-.06.22,0,.05-.06L253,67h0l.21-.24-.08,0L253,67l-.08,0,.14-.17H253l-.12.14-.08,0,.12-.14-.08,0-.09.11h-.08l.09-.11-.25-.06,0-.07.24.05,0-.13.08,0,0,.13.07,0,0-.18.09,0,0,.18h.07l-.06-.21.09,0,.06.21.07,0-.09-.3h0l.31,0,0-.07-.22,0,0-.08.21,0,0-.08-.18,0,0-.08.18,0,0-.07-.14,0,0-.08.14,0-.08-.24.07,0,.08.24.1-.1,0,.08-.1.1,0,.08.13-.13,0,.08-.13.13,0,.07.16-.15,0,.08-.15.15,0,.08.22-.23h0l.11.3,0-.06-.08-.21.06-.06.07.21.06-.06-.07-.18.06-.06.06.18.06-.06,0-.14,0-.06.05.13.17-.18.06,0-.17.19Zm-.39.92-.06-.23-.14,0,0,.09-.1,0,0,.14Zm-.34-.15-.07.07,0-.1-.09.11.08.22.16-.17Zm-.48,0,.22.06.1-.1-.1,0,.07-.07-.14,0Zm.1-.47.06.22.14,0,0-.09h.1l0-.13Zm.34.15.07-.07,0,.09.09-.1-.08-.22-.16.17Zm.26,0-.1.1.1,0-.07.07.14,0,.15-.18Z" transform="translate(-227.53 -44.46)"/>
  <rect class="cls-3" x="250.34" y="68.72" width="1.33" height="1.51" transform="matrix(0.95, -0.31, 0.31, 0.95, -236.71, 36.54)"/>
  <path class="cls-1" d="M251.5,69.08l0,0-.09,0,0,0,.12,0,0,0-.12,0,0,0,.14,0,0,0-.14,0,0,0,.21,0h0l-.14.16h.05l.1-.11h.05l-.09.11h0l.08-.09h.05l-.08.09h.05l.06-.07h.06l-.06.07.16,0v0l-.16,0,0,.09h-.05l0-.09h0l0,.12h-.06l0-.12h0l0,.14h-.06l0-.14h-.05l.06.19h0l-.2,0v0l.14,0,0,.06-.14,0v.05l.13,0v0l-.12,0,0,0,.09,0,0,.05h-.09l0,.16h0l-.05-.16-.07.07v-.06l.06-.06v0L251,70l0-.06.09-.08,0,0-.1.1,0,0,.1-.11v0l-.15.15h0l-.07-.19,0,0,.05.13,0,0,0-.13,0,0,0,.11,0,0,0-.11,0,0,0,.08,0,0,0-.09-.11.12,0,0,.11-.12-.09,0,0,0,.09,0,0,0-.12,0,0-.05.12,0,0,0-.15,0,0,0,.14,0,0,0-.2,0h0l.13-.16h-.05l-.09.11h-.06l.1-.12h-.06l-.08.1h-.05l.08-.1h-.05l-.06.07h-.06l.06-.07-.16,0v0l.16,0,0-.09h.05l0,.09h0l0-.11h.05l0,.12h.06l0-.14h0l0,.14h.05l-.06-.2h0l.21,0,0,0-.14,0,0,0,.14,0v0l-.12,0,0,0,.12,0,0,0h-.09l0-.06.1,0-.05-.16,0,0,.05.16.07-.06,0,.05-.07.07,0,0,.08-.09,0,0-.09.09,0,.05L251,69l0,.06-.1.1v0l.15-.15h0l.07.2,0,0-.05-.14,0,0,0,.14,0,0-.05-.12,0,0,0,.12,0,0,0-.09,0,0,0,.09.12-.13,0,0-.11.13Zm-.26.61,0-.15-.09,0v.07h-.06l0,.09Zm-.23-.1,0,0,0-.06-.06.07.05.14.11-.11Zm-.32,0,.15,0,.07-.07h-.07l0,0-.1,0Zm.07-.32,0,.15.1,0,0-.06h.06l0-.09Zm.23.1,0,0,0,.07.06-.07-.05-.15-.11.11Zm.17,0-.07.07.07,0,0,0,.09,0,.1-.12Z" transform="translate(-227.53 -44.46)"/>
  <rect class="cls-3" x="246.6" y="68.03" width="1.54" height="1.74" transform="translate(-236.71 35.39) rotate(-18.01)"/>
  <path class="cls-1" d="M248,68.44l0,0-.1,0,0,.05.14,0-.05,0-.14,0,0,0,.17,0-.05,0-.16,0,0,0,.23.06h0l-.15.18h.06l.1-.13.07,0-.11.13h.06l.09-.11H248l-.09.11.06,0,.07-.09.06,0L248,69l.19,0v0l-.19,0,0,.11-.06,0,0-.1h-.06l0,.14-.06,0,0-.14h-.06l0,.16h-.06l0-.16h-.06l.06.23h0l-.23,0,0,.06.16,0,0,.06-.16,0v.06l.15,0,0,.07-.15,0,0,.06.11,0,0,.06-.11,0,.06.19h0l-.06-.18-.08.07,0-.06.08-.07,0-.06-.1.1,0-.06.1-.1,0-.06-.11.12,0-.06.11-.12,0-.06-.16.18h0l-.08-.23,0,0,0,.16,0,0-.06-.16,0,0,.05.13,0,0,0-.14,0,.05,0,.1-.05,0,0-.1-.13.14-.05,0,.13-.14-.1,0,0,0,.11,0,0,0-.14,0,0,0,.14,0,0,0-.16,0,0-.05.16.05,0-.05-.23-.06h0l.16-.18H247l-.11.13-.06,0,.11-.12-.06,0-.1.11h-.06l.09-.11h-.06l-.07.08h-.06l.07-.09-.19,0v0l.19,0,0-.11.07,0,0,.1h.06l0-.13h.06l0,.14H247l-.05-.16H247l.05.16.06,0-.07-.23h0l.24,0,0-.06-.17,0,0-.06.17,0,0-.06-.14,0,0-.06.14,0,0-.06h-.1l0-.07.1,0-.06-.18.06,0,.06.18.07-.07,0,.06-.07.08v0l.1-.1,0,.06-.1.1,0,.06.12-.12,0,.06-.12.12,0,.06.17-.17h0l.08.22,0,0-.06-.16,0,0,.06.16,0,0,0-.14,0,0,.05.14,0,0,0-.1,0,0,0,.1.13-.14,0,0-.13.14Zm-.31.7,0-.17-.1,0,0,.07h-.08l0,.1Zm-.26-.11,0,0,0-.07-.07.08.06.17.12-.13ZM247,69l.18,0,.07-.08h-.07l0-.06-.1,0Zm.08-.36,0,.17.11,0,0-.07h.08l0-.1Zm.26.11.06-.05,0,.07.08-.08-.07-.17-.12.13Zm.2,0-.07.08.07,0-.05.06.11,0,.11-.14Z" transform="translate(-227.53 -44.46)"/>
  <rect class="cls-3" x="244.01" y="70.85" width="1.23" height="1.4" transform="translate(-235.97 -3.21) rotate(-9.48)"/>
  <path class="cls-1" d="M245.14,71.26l0,0-.08,0,0,0,.11,0,0,0-.11-.05,0,0,.13.05,0,0-.13,0,0,0,.18.07h0l-.15.13h0l.1-.09.05,0-.11.09.05,0,.09-.08,0,0-.08.08h0l.07,0h.05l-.07.06.15.06,0,0-.14-.06v.09l0,0v-.08l-.05,0,0,.11-.05,0,0-.11,0,0,0,.14-.05,0,0-.13,0,0,0,.19h0l-.18-.06v0l.12,0v.05l-.13,0v0l.11,0v0l-.11,0v0l.08,0v0l-.08,0,0,.16h0l0-.15-.07,0v0l.06,0V72l-.09.07v0l.09-.07v0l-.11.09v-.06l.11-.08v0l-.15.11h0l0-.19,0,0,0,.14,0,0,0-.13,0,0,0,.11,0,0,0-.11,0,0,0,.09,0,0,0-.09-.12.1,0,0,.12-.1-.08,0,0,0,.08,0,0,0-.1,0,0,0,.1,0,0,0-.13,0,0,0,.13,0,0,0-.18-.07h0l.14-.13,0,0-.1.09-.05,0,.1-.09h-.05l-.08.07,0,0,.08-.07,0,0-.06.06,0,0,.06-.06-.14,0v0l.15,0v-.08h0v.09l.05,0v-.12l0,0,0,.11,0,0v-.13l0,0v.13l0,0,0-.19h0l.18.06v0l-.13,0v0l.13,0v0l-.11,0v-.06l.11,0v-.05l-.08,0V71l.08,0,0-.15h0l0,.15.07-.05V71l-.07,0v0l.09-.07v0l-.1.07v0l.11-.08v.05l-.11.08v0l.15-.12h0l0,.19,0,0,0-.13,0,0,0,.13,0,0,0-.12,0,0,0,.11,0,0,0-.08,0,0,0,.08.12-.1,0,0-.12.1Zm-.32.52,0-.14-.08,0v.06l-.05,0v.09Zm-.2-.12-.05,0v-.06l-.07,0,0,.14.12-.09Zm-.29-.06.13.06.07-.06-.06,0,.05,0-.08,0Zm.11-.28,0,.14.08,0v-.06l.06,0,0-.08Zm.19.13.05,0v.06l.07-.06,0-.14-.11.09Zm.16,0-.07,0,.06,0-.05,0,.08,0,.11-.1Z" transform="translate(-227.53 -44.46)"/>
  <rect class="cls-3" x="239.86" y="66.28" width="1.39" height="1.57" transform="translate(-235.29 -3.94) rotate(-9.48)"/>
  <path class="cls-1" d="M241.13,66.74l0,0-.09,0,0,0,.12,0-.05,0-.12,0,0,0,.14.06,0,0-.13-.06-.05,0,.2.08h0l-.16.14.05,0,.11-.1.06,0-.11.1,0,0,.09-.09.06,0-.1.09.05,0,.07-.07.06,0-.07.07.16.06,0,.05-.16-.06v.09l0,0v-.09l-.06,0,0,.13-.05,0,0-.12-.05,0,0,.15-.06,0,0-.15,0,0,0,.21h0l-.2-.07v.06l.14,0v.06l-.14,0v.06l.13,0v.06l-.13,0v0l.1,0v.06l-.09,0,0,.17h-.05l0-.18-.08.06v0l.07-.06v-.06l-.1.08v-.06l.1-.07v-.06l-.13.09v-.05l.13-.09v-.06l-.17.13h0l0-.21,0,0,0,.14,0,0,0-.15-.05,0,0,.12,0,0,0-.13,0,0,0,.09,0,0,0-.09-.13.11,0,0,.14-.11-.09,0,.05,0,.08,0,0,0-.12-.05,0,0,.12,0,0,0-.14-.05.05,0,.14.06,0,0-.2-.08h0l.16-.14,0,0-.11.1-.06,0,.12-.1-.05,0L240,67l0,0,.09-.08-.05,0L240,67l-.06,0,.08-.06-.17-.06,0,0,.16.06v-.09l.06,0v.09l0,0,0-.13.06,0v.13l.06,0,0-.15.05,0,0,.15.05,0,0-.21h0l.21.06v0l-.15,0v0l.15,0v0l-.12,0v-.06l.12,0v0l-.09,0v-.06l.09,0,0-.17h0l0,.17.08,0v0l-.08.06v.06l.1-.08v0l-.1.08v.06l.12-.1v.06l-.12.09v.06l.17-.14h0l0,.22,0,0,0-.15.05,0,0,.15,0,0,0-.13.05,0,0,.12.05,0,0-.1,0,0,0,.09.14-.11,0,0-.14.11Zm-.36.59,0-.16-.09,0v.07l-.07,0,0,.1Zm-.22-.14-.05,0,0-.07-.07.07,0,.15.13-.09Zm-.32-.07.14.07.08-.07-.06,0,.05,0-.09,0Zm.11-.31,0,.16.1,0v-.06l.06,0v-.1Zm.22.14.06,0V67l.08-.07,0-.15-.12.09Zm.18,0-.08.06.07,0,0,0,.09,0,.12-.11Z" transform="translate(-227.53 -44.46)"/>
  <rect class="cls-3" x="236.4" y="66.32" width="1.74" height="1.98" transform="translate(-235.37 -4.47) rotate(-9.48)"/>
  <path class="cls-1" d="M238,66.89l-.06,0-.11,0-.05,0,.15.07-.06,0-.15-.06-.05,0,.18.08-.06,0-.18-.07-.05,0,.25.11h0l-.2.18.06,0,.14-.13.07,0-.14.13.06,0,.12-.11.07,0-.12.11.07,0,.09-.08.07,0-.1.09.21.07,0,.06-.21-.07,0,.12-.07,0,0-.12-.06,0,0,.16-.07,0,0-.16-.06,0,0,.19-.07,0,0-.19-.06,0,0,.27h0l-.26-.09v.07l.19.06v.07l-.18-.06v.07l.15.05V68l-.15,0V68l.12,0v.08l-.12,0,0,.22h-.06l0-.22-.1.07v-.07l.1-.07v-.07l-.13.1V68l.12-.1v-.07l-.15.12v-.08l.15-.11v-.07l-.22.17h0l-.05-.27-.05,0,0,.19-.06,0,0-.19,0,0,0,.16-.05,0,0-.16-.05,0,0,.12-.05,0,0-.12-.17.14,0,0,.17-.14-.11,0,.06,0,.11,0,.05,0-.15-.06.06-.05.15.06,0,0-.18-.07.06,0,.18.07.05,0-.25-.1h0l.2-.18-.06,0-.14.13-.07,0,.14-.12-.06,0-.12.11-.07,0,.12-.11-.07,0-.09.09-.07,0,.1-.08-.21-.08,0-.06.21.08,0-.12.07,0,0,.12.06,0,0-.16.07,0,0,.16.06,0,0-.19.07,0,0,.19.07,0,0-.27h0l.26.08v-.06l-.19-.06v-.07l.18.06v-.07l-.15,0v-.08l.15.06v-.07l-.12,0v-.07l.12,0,0-.22h.06l0,.22.1-.08v.07l-.1.08v.07l.13-.1v.07l-.12.1v.07l.15-.12v.07l-.15.12V67l.22-.16h0l.05.26,0,0,0-.19.06,0,0,.19.05,0,0-.16,0,0,0,.16,0,0,0-.12,0,0,0,.12.17-.14,0,0-.17.14Zm-.46.74,0-.2-.12,0v.09l-.08,0,0,.12Zm-.27-.17-.07.05,0-.08-.09.07,0,.2.16-.12Zm-.41-.08.19.07.09-.07-.08,0,.07,0-.12-.05ZM237,67l0,.2.12,0v-.09l.08,0,0-.12Zm.27.18.07-.06,0,.09.09-.08,0-.2-.16.13Zm.22,0-.09.08.08,0-.07.06.12,0,.15-.13Z" transform="translate(-227.53 -44.46)"/>
  <rect class="cls-3" x="233.61" y="69.63" width="1.8" height="2.04" transform="translate(-235.96 -4.88) rotate(-9.48)"/>
  <path class="cls-1" d="M235.26,70.22l-.06,0-.11,0-.06,0,.16.06-.06,0-.16-.06-.05,0,.18.08-.06,0-.18-.08-.05,0,.26.11h0l-.21.19.06,0,.15-.13.07,0-.15.13.07,0,.12-.11.07,0-.12.11.07,0,.09-.08.07,0-.09.08.21.08,0,.06-.22-.08,0,.13-.07,0,0-.13-.06,0,0,.17-.07,0,0-.17-.07,0,0,.19-.07,0,0-.2-.07,0,0,.28h0L234.6,71v.07l.19.06v.07l-.18-.06v.07l.16.05v.08l-.16-.06v.07l.12,0,0,.08-.12,0,0,.22h-.06l0-.22-.1.08v-.08l.1-.07v-.08l-.14.11v-.08l.13-.1v-.07l-.16.12V71.2l.16-.12V71l-.22.17h0l-.06-.28,0,0,0,.19-.06,0,0-.19-.06,0,0,.16-.06,0,0-.16-.06,0,0,.13-.06,0,0-.13-.17.15-.05,0,.18-.15-.12,0,.06,0,.12,0,.05,0-.15-.07.06,0,.15.06.06,0-.19-.07.06-.05.18.08.06-.05-.26-.1h0l.21-.19-.07,0-.14.14-.07,0,.14-.13-.06,0-.13.11-.07,0,.13-.11-.07,0-.09.09-.08,0,.1-.08-.21-.08,0-.07.21.08v-.12l.07,0v.12l.07,0,0-.17.07,0,0,.16.07,0,0-.2.07,0,0,.19.06,0,0-.28h0l.26.09v-.07l-.19-.06V70.1l.19.07V70.1l-.16-.06,0-.07.16,0V70l-.12,0v-.07l.12,0,0-.23h.07l0,.23.11-.08v.07l-.1.08V70l.13-.1V70l-.13.1v.08l.16-.13v.08l-.15.12v.07l.22-.17h0l0,.27.06,0,0-.2.06,0,0,.19.05,0,0-.16.06,0,0,.17,0,0,0-.12.06,0,0,.12.18-.14,0,0-.18.14Zm-.47.77,0-.21-.12,0,0,.09-.09,0,0,.12Zm-.29-.18-.07,0v-.09l-.1.09,0,.2.17-.13Zm-.42-.09.2.08.09-.08-.08,0,.07-.06-.12,0Zm.16-.4,0,.2.12,0v-.09l.08,0,0-.13Zm.28.18.07-.06,0,.09.1-.08,0-.21-.17.13Zm.23,0-.1.08.08,0-.06.06.12,0,.15-.14Z" transform="translate(-227.53 -44.46)"/>
  <rect class="cls-3" x="230.11" y="69.08" width="2.03" height="2.3" transform="translate(-235.94 -5.45) rotate(-9.48)"/>
  <path class="cls-1" d="M232,69.74l-.06.06-.13-.06-.06.05.17.08-.07,0-.17-.07-.06.05.2.08-.06.06-.21-.09-.06,0,.3.12h0l-.23.21.07,0,.17-.15.08,0-.17.15.08,0,.14-.13.08,0-.15.13.08,0,.11-.1.08,0-.11.1.24.09,0,.07-.24-.09,0,.14-.08,0,0-.14-.07,0,0,.19-.08,0,0-.19-.08,0,0,.22-.08,0,0-.22-.07,0,0,.32h0l-.3-.1,0,.07.21.07v.09l-.21-.07v.08l.18.06,0,.08-.18-.06V71l.14,0v.09l-.14-.05,0,.26h-.08l0-.26-.11.09,0-.08.12-.09,0-.08-.15.12V71l.15-.11v-.08l-.18.13v-.08l.17-.13v-.08l-.25.19h0l-.06-.31-.07,0,0,.22-.07,0,0-.22-.06.06,0,.18-.07.05,0-.18-.06,0,0,.14-.07,0,0-.14-.19.17,0-.06.2-.16-.13-.06.06,0,.13,0,.06,0-.17-.07.07,0,.17.07.06,0-.2-.09.06,0,.21.08.06,0-.29-.12h0l.23-.21-.07,0-.17.14-.08,0,.17-.14-.08,0-.14.12-.08,0,.15-.12-.08,0-.11.09-.08,0,.11-.09-.24-.09,0-.07.24.09,0-.14.08,0,0,.14.07,0,0-.19.08,0,0,.19.08,0,0-.23.08,0,0,.22.07,0,0-.31h0l.3.1,0-.08-.21-.07v-.08l.21.07V69.6l-.18-.06,0-.08.18.06v-.08l-.13,0,0-.08.14,0-.05-.25H231l0,.25.11-.08,0,.08-.12.08,0,.08.15-.11v.08l-.15.12v.08l.18-.14,0,.09-.18.13v.08l.25-.2h0l.06.32.07,0-.05-.22.07-.06,0,.22.06,0,0-.18.07-.06,0,.19.06,0,0-.14.07-.06,0,.14.19-.16.05.06-.2.16Zm-.53.87,0-.24-.13-.05v.1l-.09,0,0,.14Zm-.32-.21-.08.07,0-.1-.11.09,0,.23.19-.15Zm-.47-.09.21.09.11-.09-.09,0,.08-.07-.14,0Zm.17-.46,0,.23.13,0V70l.1,0,0-.14Zm.32.2.08-.06,0,.1.11-.09-.05-.23-.18.14Zm.26,0-.11.09.09,0-.08.06.14,0,.17-.15Z" transform="translate(-227.53 -44.46)"/>
  <rect class="cls-3" x="227.67" y="73.36" width="1.61" height="1.83" transform="translate(-236.64 -5.83) rotate(-9.48)"/>
  <path class="cls-1" d="M229.15,73.89l-.06,0-.1,0-.05,0,.14.06L229,74l-.14-.06,0,0,.16.06-.05,0-.16-.07,0,0,.23.09h0l-.19.17.06,0,.13-.11.07,0-.14.12.06,0,.12-.1.06,0-.11.1.06,0,.08-.08.06,0-.08.08.19.07,0,.06-.19-.08v.12l-.06,0v-.11l-.06,0,0,.15-.07,0,0-.15-.06,0,0,.18-.07,0,0-.17-.06,0,0,.25h0l-.24-.08v.06l.16,0,0,.07-.17-.06v.07l.14,0v.07l-.14,0v.07l.11,0V75l-.11,0,0,.2h-.05l0-.2-.09.07V75l.09-.06v-.07l-.12.09v-.06l.12-.09v-.07l-.14.11v-.07l.14-.1V74.6l-.2.15h0l-.05-.25-.05,0,0,.18-.06,0,0-.18-.05,0,0,.14,0,0,0-.15-.05,0,0,.11-.05,0,0-.11-.16.13,0,0,.16-.13-.11,0,.06,0,.1,0,0,0-.14-.06,0,0,.14.06.05,0-.16-.07.05,0,.16.07.05,0-.23-.1h0l.19-.17-.06,0-.13.12-.07,0,.14-.12-.07,0-.11.1-.06,0,.11-.1-.06,0-.08.08-.07,0,.09-.07-.19-.08,0,0,.19.07v-.11l.06,0V74l.06,0,0-.15.07,0,0,.15.06,0,0-.17.07,0,0,.18.06,0,0-.25h0l.24.08v-.06l-.16-.06,0-.07.17.06v-.06l-.14,0v-.07l.14,0v-.06l-.11,0v-.06l.11,0,0-.2h.06l0,.2.09-.07v.07l-.09.07v.06l.12-.09v.07l-.12.09v.06l.14-.11v.07l-.14.11V74l.2-.15h0l0,.24.05,0,0-.17.06,0,0,.17,0,0,0-.15.05,0,0,.15,0,0,0-.11,0,0,0,.11.16-.13,0,0-.16.13Zm-.43.69,0-.19-.11,0v.08l-.07,0,0,.11Zm-.25-.16-.07,0v-.08l-.09.07,0,.18.15-.11Zm-.38-.08.17.07.09-.07-.07,0,.06,0-.11,0Zm.14-.36,0,.18.11,0v-.08l.07,0,0-.11Zm.25.16.07,0v.08l.09-.07,0-.19-.15.12Zm.21,0-.09.07.07,0-.06.06.11,0,.14-.13Z" transform="translate(-227.53 -44.46)"/>
  <g id="House">
    <path class="cls-1" d="M381.41,49.77V46.2h-2.23V48l-2.72-2-10.25,8h1.6V65h6.51V60.17h3.75V65H385V54h1.71Zm-7.8,9.32h-3.53V55.77h3.53Zm9.07,0h-3.52V55.77h3.52Z" transform="translate(-227.53 -44.46)"/>
    <polyline class="cls-4" points="138.69 9.57 148.93 1.53 159.18 9.57"/>
    <polygon class="cls-5" points="151.65 0.86 151.65 3.76 154.77 6.3 154.77 0.86 151.65 0.86"/>
    <rect class="cls-6" x="146.79" y="15.72" width="3.75" height="4.85"/>
    <rect class="cls-7" x="151.63" y="11.31" width="3.53" height="3.32"/>
    <rect class="cls-8" x="142.55" y="11.31" width="3.52" height="3.32"/>
    <path class="cls-1" d="M365.7,52.8c0,.05.09.1,0,.06S365.66,52.76,365.7,52.8Z" transform="translate(-227.53 -44.46)"/>
    <path class="cls-1" d="M376.67,45c.13.41-.29.23-.27.54,0,0-.13-.17-.14-.1.07.35-.26.37-.57.32l0-.06c-.06,0,0,.18,0,.19a.61.61,0,0,0-.07-.1c.07.11,0,.1,0,.18a1,1,0,0,0-.16-.13l.07.12c.16.31-.14.08-.1.28a.56.56,0,0,0,0-.08c0,.25-.16.34-.24.5a1.67,1.67,0,0,0-.12-.16c.08.13.07.19.05.24-.11-.11,0,.15-.07.12v0c.07.15-.11,0,0,.13l-.1-.08c.12.18-.11,0-.07.06l0,0c0,.06-.07,0-.07,0v0c0,.09-.12,0,0,.15-.1-.1,0-.09-.14-.22-.06.26-.25.37-.42.51a.45.45,0,0,1-.13-.1s0,.08,0,.16-.06-.06-.08-.06.08.17,0,.14a.29.29,0,0,0-.08-.14c0,.12,0,.14,0,.2a.16.16,0,0,0,0-.09c0,.15-.09,0-.06.13l-.05-.09c-.12-.05.11.17,0,.15a.24.24,0,0,0-.06-.09c.07.17,0,.18,0,.26l0,0s-.12,0-.12.14-.14-.19-.17-.13,0,.13.13.29c-.06,0-.18,0-.16.07s-.17-.18-.14-.22l-.1-.07c0-.07,0,0,0-.07s0,.12-.05.1.15.33.11.38-.15-.16-.15-.2l.15.36s-.09-.12-.09-.06a.6.6,0,0,1,.06.11s0,.09-.17,0,0-.06-.06-.1,0,.08,0,.11l0,0s0,.11.08.18-.08-.09,0-.06,0,.15,0,.18a.88.88,0,0,0-.07-.12.57.57,0,0,1,0,.31c.05.08-.08-.14-.05-.11-.14-.06,0,.24-.18.13,0,0,.08.1.06.08s-.11-.09-.1,0,0,0,0,.07,0,0,0,0,0,.25-.17.21c0,0,.07.18,0,.19l-.06-.11c-.06,0,0,0-.11,0,.06.14.05-.19.07-.07-.07-.07.06.2,0,.06,0,0,0,.16-.07.09s-.08-.16-.1-.13,0,0,0,.11v.06c.07.09-.05,0,.05.11-.07-.08,0,.09-.14-.07l-.09-.13s.07.16.09.22l0,0c.13.19-.06,0,0,.18-.09,0-.11.07-.21,0,0,.08,0,.17,0,.15l0-.07c-.06,0,0,0,0,0a1.76,1.76,0,0,0-.2-.13.72.72,0,0,0,.14.24c-.16-.16,0,.19-.16,0a.19.19,0,0,0-.08-.15c-.16-.17.05.18-.06.12l.12.15c-.09-.09,0,.13-.11,0,0,.07-.09,0,0,.14-.17-.08-.13.2-.37,0,0,0,0,0,0,.1s0-.08,0,0,0,.06,0,.08-.07,0-.14-.16.13.3,0,.28-.06-.08-.07-.06l0,.14c-.06,0-.13-.13-.2-.24s0,0,0,.14l-.12-.12c.09.09,0,.08,0,.11v0s0,0-.05,0a.24.24,0,0,0,.13.08s0,0,0,.12c-.07-.11-.09,0-.12,0s0,.11,0,.12,0,0-.08-.08.05,0,0,0-.11-.13-.09,0,.16.2.07.16a.73.73,0,0,1-.05-.12l-.08,0,.07.09,0,0c.06.11,0,.07,0,.19s-.09,0-.12,0h0c-.06,0-.06,0,0,.1v0s0,0,0,.1-.27-.36-.21-.21.07.21.13.26c-.1,0-.06.17-.21.06,0,0,0,.07,0,.1s-.1.23-.29.09c0-.06-.07-.1-.11-.15s-.08-.08,0,.08.09.13.14.15-.09.13-.17.07a.11.11,0,0,1,0,.09c-.09-.14-.14-.13-.13-.07l.05.09-.08-.07s.11.18,0,.12l-.07-.09c0,.09.06.24,0,.19l-.11-.11a.21.21,0,0,0,.07.13c-.1,0-.14,0-.23-.12.09.32,0,.43-.15.48l0-.07c-.07,0,.06.12,0,.09s-.11-.12-.14-.21,0,.15,0,.2,0-.07.06,0-.11,0,0,.1a1,1,0,0,1-.12-.2V52c-.13-.13-.11-.31-.26-.47v0c-.11-.11,0-.19-.13-.19a.92.92,0,0,0,.18.32c0,.07.18.32.12.34s0-.05-.05-.14,0,.09-.06.07a.35.35,0,0,1,.12.21c-.07,0-.06-.14-.11-.12s0,.16.11.19-.08,0,0,.12c-.09-.11-.14-.3-.23-.33.09.11.05.19.19.35a.52.52,0,0,1-.14-.19c-.07,0,.08.25-.08,0l.07.12-.11-.11s0,.21-.08,0c0,0-.05.05,0,.15s0-.11.11,0c-.11-.11,0,.05,0,.11l-.05-.07s0,0,0,.12a.21.21,0,0,0-.07-.1l.06.11c0,.08-.13-.18-.16-.12l0-.1s-.07-.07-.07,0l.16.3c0,.06-.08-.1,0,0l-.05-.13s-.12-.14-.15-.12a.37.37,0,0,0,.12.23s-.07,0-.1-.1.07.09.07.17-.15-.11-.23-.19l-.07-.18h0c-.05-.14-.07-.08-.14-.23s0,0,0,.09c.18.19.14.33.28.51,0,.1-.35-.45-.21-.1,0,0,.11.21.11.13s.1.21,0,.16-.17-.18-.19-.32c0,.06.05,0,.05,0s-.13-.2-.16-.18,0,.06,0,.16,0,0,.08.09-.14-.1,0,.11c0,0,.1.08.15.16v.06l0-.07c-.09,0,.07.14,0,.16l-.12-.14c-.06-.13.12,0,0-.19,0,0,0,.13-.05.09s0,0,0,0-.2-.27-.15-.08,0,.08.09.16,0,.15,0,.18c-.09-.15-.08,0-.14-.15.08.08.15,0,.08-.14s.06,0,0-.19c0,0-.16-.15-.24-.27s0,.06,0,.08.08.1.16.21-.08.1,0,.22c0,0-.12-.15-.1-.18a.21.21,0,0,1-.19.1c.15.15,0,.08.08.21a.44.44,0,0,1,.2.22s0-.07-.08-.11c0,.12-.14-.13-.06,0,0-.09-.13-.22-.21-.37,0,.1-.06-.1-.1-.08a.59.59,0,0,1,0,.25c-.14-.09-.14.09-.18.12s-.16-.22-.2-.23.13.16,0,.11l0,0s-.15,0,0,.18l-.1-.18s0,0,0,.06a.49.49,0,0,1-.09-.15c-.1-.1-.05.06-.08.08l.09.09c0,.12-.11,0-.14.11l-.06-.1v.08C366,53,365.94,53,366,53l-.07-.29c.06,0,.05.13.13.22s.09,0,0-.08,0,0,0,.07c-.1-.14-.06-.15-.11-.25s0,0,0,0,0-.1,0-.12.07.08.08.12c-.07-.12-.06-.18,0-.17s0-.13.08-.12a.89.89,0,0,1,.1.31c.07,0,0,0,.1,0a1.28,1.28,0,0,1-.12-.32l.06.09c0-.07-.08-.21,0-.21a.68.68,0,0,0,.24-.07l.06.09c-.09-.22.06-.14,0-.25.13,0,.1-.19.24-.05.08-.15.15-.29.3-.34l.06.14c0-.11.06.07.07,0s-.05-.15-.09-.24c.12.06.13-.1.12-.22l.06.08c-.06-.2.1-.09.18-.1s.1.1.11.08a.66.66,0,0,1,0-.29.21.21,0,0,1,.19,0c0-.29.23-.26.3-.48l.08.1c0-.32.29-.23.34-.43l.11.19c.07,0,.05-.11-.05-.23.08,0,0-.14.16,0s0-.11,0-.15.14,0,.19-.11h0s.07.12.1.11.13,0,0-.21c.16.07.1-.22.29-.11,0,0,0-.08-.05-.12s.22,0,.2-.12c0,0,.05.11.08.1s-.05-.08-.05-.12.3,0,.37-.14.32-.31.48-.45l0,.05c-.05-.2.25.07.12-.21,0,0,.07,0,.12.07,0-.14.2,0,.16-.17,0,0,0,0,0,0s.1-.13.22-.09a.49.49,0,0,0,0,.09c.08.06-.07-.22.09,0,0,0-.06-.11-.07-.1.21,0,.27-.27.4-.43.19,0,.25.33.23.12,0,0-.05-.08,0,0s.22.18.16.06,0-.08-.09-.16c.13,0,.23.13.21,0l0,.07c-.07-.23.08-.19,0-.44.32-.29.56-.65.88-.93s.6-.55,1-.69c.21.1.21.1.24,0a.31.31,0,0,0,0,.06c-.1-.14.05-.06,0-.19a2,2,0,0,0,.35-.3s.07.15.09.12l-.05-.1,0,0a.22.22,0,0,0-.09-.14c.22-.37.74-.34,1-.62.12,0,.18-.14.24-.23.38,0,.7,0,.84-.35C376.45,44.46,376.7,44.83,376.67,45Z" transform="translate(-227.53 -44.46)"/>
    <path class="cls-1" d="M365.74,52.75c.06.07.11.09.15.2C365.84,52.88,365.78,52.82,365.74,52.75Z" transform="translate(-227.53 -44.46)"/>
    <path class="cls-1" d="M367,53s0,0,0,0,0,.08,0,0S367,53,367,53Z" transform="translate(-227.53 -44.46)"/>
    <path class="cls-1" d="M367.24,52.92a.17.17,0,0,1,0,.17Z" transform="translate(-227.53 -44.46)"/>
    <path class="cls-1" d="M367.61,53.06c.05,0,.06.08,0,.09A.25.25,0,0,1,367.61,53.06Z" transform="translate(-227.53 -44.46)"/>
    <path class="cls-1" d="M367.52,52.91s.05,0,.08.05S367.59,53,367.52,52.91Z" transform="translate(-227.53 -44.46)"/>
    <path class="cls-1" d="M368.06,52.83s0-.08.05,0S368.11,52.92,368.06,52.83Z" transform="translate(-227.53 -44.46)"/>
    <path class="cls-1" d="M368.19,52.6s0,0,0,0,.05.08,0,.09Z" transform="translate(-227.53 -44.46)"/>
    <polygon class="cls-1" points="143.89 5.54 143.9 5.59 143.85 5.52 143.89 5.54"/>
    <path class="cls-1" d="M372.88,48.93c0-.06.06,0,.07,0S372.9,48.9,372.88,48.93Z" transform="translate(-227.53 -44.46)"/>
    <polygon class="cls-1" points="145.9 3.58 145.9 3.58 145.8 3.46 145.9 3.58"/>
    <path class="cls-1" d="M377.63,45.34c-.06,0,0,.13-.06,0S377.64,45.29,377.63,45.34Z" transform="translate(-227.53 -44.46)"/>
    <path class="cls-1" d="M387.61,52.71c-.27.33-.32-.12-.56.06,0,0,.08-.2,0-.17-.26.24-.42-.05-.49-.35l0,0c0-.05-.15.11-.17.07a.44.44,0,0,0,.06-.1c-.07.11-.09,0-.15.1a1.17,1.17,0,0,0,.06-.2l-.08.12c-.21.28-.12-.09-.28,0a.18.18,0,0,0,.05-.07c-.21.11-.35,0-.52,0l.11-.17c-.09.13-.15.13-.2.14.06-.14-.13.08-.13,0l0,0c-.11.11,0-.11-.12,0l0-.11c-.12.17,0-.12-.06,0l0,0c-.05,0,0-.07,0-.05v0c-.08,0,0-.11-.14,0,.06-.12.09,0,.17-.2a.73.73,0,0,1-.58-.23.35.35,0,0,1,.06-.14s-.08,0-.15,0,0-.07,0-.09-.14.13-.13.05a.43.43,0,0,0,.11-.12c-.11.08-.13,0-.19.05a.23.23,0,0,0,.07-.07c-.12.09,0-.08-.13,0l.07-.07c0-.13-.14.15-.14.06l.08-.08c-.15.11-.18,0-.25,0l0,0c-.05,0-.06-.1-.16-.08s.16-.18.09-.18-.13,0-.24.19c0-.06,0-.16-.1-.13s.13-.2.18-.19l.05-.11c.05-.06,0,0,.06,0s-.11,0-.11,0-.27.21-.34.19.13-.17.17-.18l-.31.22s.1-.12,0-.1a.43.43,0,0,1-.1.09s-.09,0,0-.18.05,0,.07-.07-.07,0-.1,0l0,0s-.11,0-.16.11.07-.09.05,0-.14.07-.17,0,.06-.05.1-.09a.58.58,0,0,1-.29.09c-.06.07.12-.11.1-.07,0-.14-.24,0-.16-.14,0,0-.08.1-.06.08s.07-.13,0-.11,0,0-.07,0,0,0,0,0-.25,0-.23-.11c0,0-.16.11-.17.09l.09-.08c0-.07-.05,0,0-.11-.12.08.19,0,.08,0,.06-.08-.18.1-.06,0,0,0-.15.06-.1,0s.14-.1.11-.11-.05,0-.1,0l-.06,0c-.08.09,0,0-.09.07.06-.08-.1,0,0-.15l.11-.11s-.14.1-.2.14l0-.06c-.16.17,0,0-.16.07,0-.09-.08-.08,0-.21-.07,0-.15.07-.15,0a.13.13,0,0,0,.07,0c0-.07,0,0-.06,0a1,1,0,0,0,.1-.21,1.18,1.18,0,0,0-.21.18c.14-.19-.17,0-.06-.14,0,0,.12,0,.14-.11s-.17.08-.13,0l-.12.15c.07-.11-.13,0,0-.11-.06,0,0-.09-.13.05.05-.17-.21-.06,0-.34,0,0,0,0-.09,0s.07,0,0,0l-.07,0s0-.07.13-.17-.26.2-.26.09.07-.08.05-.08l-.12.07c0-.06.1-.15.19-.25a.13.13,0,0,0-.13,0l.09-.14c-.07.1-.07,0-.1.06l0,0s0,0,0,0a.2.2,0,0,0-.06.13c-.05,0-.05,0-.11,0s0-.09,0-.12S381,49,381,49s0,0,0-.09,0,.06,0,0,.1-.13,0-.09-.16.19-.14.1l.1-.08,0-.08-.08.09s0,0,0,0-.07,0-.17.08,0-.09,0-.11h0c0-.07,0-.06-.09,0l0,0s0,0-.1,0,.29-.33.16-.25-.18.13-.22.19c0-.1-.18,0-.1-.18,0,0,0,.06-.08.07s-.23,0-.13-.25c.05,0,.07-.08.12-.13s.05-.1-.07,0-.11.12-.12.16-.14,0-.09-.13a.2.2,0,0,1-.08.08c.11-.13.1-.17,0-.15l-.07.08.06-.1s-.15.16-.11.07l.07-.09c-.08,0-.21.12-.18,0l.08-.13a.19.19,0,0,0-.11.11.47.47,0,0,1,.07-.25c-.28.17-.39.1-.47,0l.05-.06c0-.07-.09.1-.08,0s.09-.14.16-.19-.13.07-.17.08.06,0,0,.06,0-.1-.09,0a1.19,1.19,0,0,1,.15-.18l-.07,0c.09-.16.26-.2.37-.39h0c.09-.14.17-.1.15-.18a.88.88,0,0,0-.24.27c-.07,0-.25.27-.29.22s.05,0,.12-.09-.09,0-.08,0a.41.41,0,0,1-.16.18c0-.08.1-.1.08-.14s-.13.09-.14.16,0-.07-.12,0c.08-.12.24-.23.25-.32-.08.11-.16.11-.27.29a.54.54,0,0,1,.14-.19c0-.08-.2.16-.05-.06l-.09.1.07-.14s-.17.11,0-.06c0,0-.06,0-.13.1s.09-.06,0,.11c.08-.14-.05,0-.1,0l.05-.07s0,0-.1.06a.18.18,0,0,0,.07-.1l-.08.09c-.07,0,.12-.18.06-.18l.09,0s0-.09,0-.08l-.22.26c-.05,0,.07-.11,0,0l.11-.09s.09-.17.06-.18a.38.38,0,0,0-.17.2s0-.08.06-.14-.06.1-.13.14.06-.18.11-.28l.13-.14h0c.11-.11.05-.11.16-.23s-.05,0-.09,0c-.11.24-.24.26-.36.46-.09,0,.29-.49,0-.23,0,.06-.15.18-.08.15s-.16.18-.14.07.11-.21.23-.3c0,.06,0,.07,0,.05s.14-.19.11-.21-.06,0-.13.09,0,0-.05.11,0-.16-.11,0c0,0,0,.11-.09.19l-.06,0,.06-.07c0-.08-.1.12-.14.07l.08-.15c.1-.12,0,.09.16-.12,0,0-.1.07-.1,0l.05,0s.16-.3,0-.16-.06.07-.11.14-.13.06-.16.06c.1-.15-.05-.05.08-.18,0,.09,0,.13.15,0s0,0,.15-.13c0,0,.08-.2.15-.32s0,0-.07,0-.06.11-.13.23c0-.06-.11,0-.2.06a.41.41,0,0,1,.12-.17.17.17,0,0,1-.15-.11c-.08.2-.08,0-.15.17a.52.52,0,0,1-.12.27s.05-.08.07-.12.06-.18,0,0c.08,0,.14-.21.24-.35-.09.06.06-.1,0-.12a.55.55,0,0,1-.21.1c0-.16-.13-.07-.17-.09s.12-.24.11-.28-.07.19-.08.09l0,0s0-.16-.17.07l.11-.17s0,0,0,0a1,1,0,0,1,.08-.15c0-.13-.07,0-.1,0l0,.12c-.09,0-.07-.07-.14-.06l.06-.11-.07,0c.06-.1.07-.18,0-.1l.21-.21c0,.07-.09.11-.13.22s0,.09.09,0,0,0-.06,0c.07-.15.09-.13.16-.22s0-.05,0,0,.08-.06.11-.05,0,.1-.06.13c.07-.12.12-.15.14-.09s.12,0,.15,0a1.17,1.17,0,0,1-.23.25c0,.07,0,0,0,.09a1,1,0,0,1,.22-.27l0,.1c.06,0,.14-.17.17-.12a.74.74,0,0,0,.17.18l-.06.09c.15-.18.14,0,.24-.07,0,.13.2,0,.14.18.16,0,.31,0,.41.13l-.11.11c.09-.08,0,.09,0,.08s.12-.11.19-.18c0,.14.13.08.24,0l-.06.09c.16-.13.12,0,.16.12s-.07.13,0,.14a.65.65,0,0,1,.26-.15.2.2,0,0,1,.06.18c.27-.09.31.13.53.13l-.07.1c.3-.11.3.21.49.19l-.15.16c0,.08.11,0,.2-.1,0,.08.15,0,.06.14s.1,0,.15,0,.05.13.14.15v0s-.1.1-.09.12.05.12.2-.09c0,.17.23,0,.16.25,0-.05.07-.05.11-.08s0,.21.15.17c0,0-.1.07-.08.1s.06-.07.11-.08.09.27.2.32.35.23.5.34l0,0c.18-.1,0,.25.21.07,0,0,0,.05-.05.12.13-.07,0,.19.19.11,0,0,0,0,0,0s.13.06.12.19l-.08.05c0,.1.2-.11.05.09,0,0,.09-.09.08-.09.06.19.3.19.47.27,0,.2-.28.31-.08.24,0,0,.07-.06,0,0s-.14.24,0,.17.07-.06.13-.12c0,.12-.09.23,0,.19l0,.06c.2-.12.18,0,.4-.14.32.23.7.36,1,.56s.6.38.82.7c-.05.22,0,.22.08.2a.13.13,0,0,0,0,.06c.1-.14.06,0,.16-.11a1.14,1.14,0,0,0,.34.19s-.11.13-.08.13l.08-.08,0,0a.36.36,0,0,0,.1-.13c.36,0,.48.5.8.59,0,.1.17.09.26.09.15.3.31.55.61.49C387.92,52.23,387.75,52.65,387.61,52.71Z" transform="translate(-227.53 -44.46)"/>
    <path class="cls-1" d="M377.69,45.35a.64.64,0,0,1-.1.23A2.29,2.29,0,0,1,377.69,45.35Z" transform="translate(-227.53 -44.46)"/>
    <path class="cls-1" d="M378,46.55s0,0,0,.05-.05.06,0,0S378,46.58,378,46.55Z" transform="translate(-227.53 -44.46)"/>
    <path class="cls-1" d="M378.15,46.71a.17.17,0,0,1-.14.08Z" transform="translate(-227.53 -44.46)"/>
    <path class="cls-1" d="M378.14,47.08c0,.06-.05.09-.06.08A.55.55,0,0,1,378.14,47.08Z" transform="translate(-227.53 -44.46)"/>
    <path class="cls-1" d="M378.25,46.94s0,.05,0,.09S378.17,47.05,378.25,46.94Z" transform="translate(-227.53 -44.46)"/>
    <path class="cls-1" d="M378.47,47.36s.07,0,0,0S378.4,47.45,378.47,47.36Z" transform="translate(-227.53 -44.46)"/>
    <path class="cls-1" d="M378.7,47.38s0,0,0,0,0,.08-.07.08Z" transform="translate(-227.53 -44.46)"/>
    <polygon class="cls-1" points="154.18 5.12 154.14 5.13 154.19 5.08 154.18 5.12"/>
    <path class="cls-1" d="M383,50.7c.05,0,0,.07,0,.08S383,50.71,383,50.7Z" transform="translate(-227.53 -44.46)"/>
    <polygon class="cls-1" points="156.37 6.55 156.36 6.54 156.47 6.42 156.37 6.55"/>
  </g>
  <g id="Snow-5">
    <path class="cls-1" d="M253,67.75c5.13.1,8.6-1.09,10.62-.33a4.8,4.8,0,0,0,4.39,0c1.65-.65,5.5-1.09,7,.54,0,0,3.3,1.09,4.4-1.41.08-.2.13-.37.19-.56-2-2-1.8-4.26-6.79-3.67s-9.51-1.82-13.17-1.22-8.43,1-10.62,2.43a8.55,8.55,0,0,0-2,1.62A8.6,8.6,0,0,0,253,67.75Z" transform="translate(-227.53 -44.46)"/>
    <path class="cls-2" d="M248.94,68.6a13.31,13.31,0,0,0,7.32.81,17.06,17.06,0,0,1,6.22-.42c1.9,0,2.17,1.32,4.37.3s3.75-.86,5.21.35,1.77,1.19,3.6,1.39,6.22-2.84,4-4.86l-.17-.18c-.06.19-.11.36-.19.56-1.1,2.5-4.4,1.41-4.4,1.41-1.46-1.63-5.31-1.19-7-.54a4.8,4.8,0,0,1-4.39,0c-2-.76-5.49.43-10.62.33a8.6,8.6,0,0,1-6-2.6C246.19,66.12,246.4,67.2,248.94,68.6Z" transform="translate(-227.53 -44.46)"/>
  </g>
  <g id="Snow-6">
    <path class="cls-1" d="M297.19,67.93c-3.15-2.71-6.68-.68-10.23-1s-11,.34-15.73,1-14.56,0-17.7-1-5.9,1.36-11.41.68c-3.92-.48-6.85-2.51-9.63-3,1.24-1.41,4.71-3.42,7.77-2.24A18.29,18.29,0,0,0,250,63.86c3.93-.34,12.59,3.39,15.74,1.7s8.64-5.43,12.58-4.07,5.31,1.78,9.74,1.61,7.18-.94,9.93.08,8.65-2.37,10.62,0c1.21,1.46,1.92,2.44,1.85,3.16a5.23,5.23,0,0,0-3.82,1.59C303.09,71.32,300.33,70.64,297.19,67.93Z" transform="translate(-227.53 -44.46)"/>
    <path class="cls-2" d="M309.28,67.42c-2,.77-4,5.48-7.83,4.52s-3.35-4.57-8.13-4.29-12.65-.74-17,.28-19.28,1-21.64,0-8.26,1-14.16.34c-2.84-.33-8-.93-7.86-2,0-.21.22.37.49.06,2.78.51,5,.79,8.94,1.27,5.51.68,8.26-1.69,11.41-.68s13,1.7,17.7,1,12.2-1.36,15.73-1,7.08-1.69,10.23,1,5.9,3.39,9.44,0a5.23,5.23,0,0,1,3.82-1.59C310.4,66.78,310,67.13,309.28,67.42Z" transform="translate(-227.53 -44.46)"/>
  </g>
  <g id="Snow-7">
    <path class="cls-1" d="M269.32,66.67c5.06-.6,5.82-1.51,5.82-1.51s1.68,2.17,6.14,2,6-.33,9.27-.63c2.13-.2,5.31-.64,7.3-.94a4.29,4.29,0,0,0-2-.87c-1.1-.15-5,.22-6.07,0-1.93-.42-2.26-1.08-2.27-1.21-.09-1.43-1.72,1.13-1.72,1.13-2.08-1.68-7.51-.44-13.58-.74s-8.18-.54-9.7.52a.73.73,0,0,0-.35.59C263.25,66,266.91,67,269.32,66.67Z" transform="translate(-227.53 -44.46)"/>
    <path class="cls-2" d="M268.32,68.63c1.76.76,4.26.57,5.29-.69s2-.51,4.05.24,5.82.3,8.09-.3c1.44-.38,13.27.83,12.76-1.44a1.86,1.86,0,0,0-.66-.86c-2,.3-5.17.74-7.3.94-3.28.3-4.8.45-9.27.63s-6.14-2-6.14-2-.76.91-5.82,1.51A6.07,6.07,0,0,1,264.17,65C264.09,66.19,266.83,68,268.32,68.63Z" transform="translate(-227.53 -44.46)"/>
  </g>
  <g id="Snow-8">
    <path class="cls-1" d="M235.14,67.76c-.83.86-1.31,1.54-2.91,1,.46-1,1.83-2.49.46-3.11-2-.87-.12-4.57,3.8-5.16s5.39,1.5,7.36,1.65.79,3.81,2.2,3.95c.56.06,2.63.05,4.92,0-2.26.3-4.6.38-6,.56C240.77,67.23,236.12,66.73,235.14,67.76Z" transform="translate(-227.53 -44.46)"/>
    <path class="cls-2" d="M249.6,67.6c-1.22.58-8.44.5-10,.18s-3.69.31-4.28,1.24c-1.08,1.69-1.41,1.36-2.88.77-.44-.18-.41-.54-.21-1,1.6.5,2.23-.64,3.41-1.35,1.83-1.09,4.63-.22,9.31-.73,1.43-.16,3.76-.26,6-.56,3.45,0,7.4-.14,7.4-.14C258.86,66.9,250.83,67,249.6,67.6Z" transform="translate(-227.53 -44.46)"/>
  </g>
  <rect class="cls-3" x="319.01" y="52.52" width="1.21" height="1.07" transform="translate(13.69 322.96) rotate(-85.42)"/>
  <path class="cls-1" d="M320.1,52.91l0,0-.06,0,0,0,.08.06,0,0-.08-.06h0L320,53l0,0-.09-.07,0,0,.13.1h0l-.14.08,0,0,.1,0,0,0-.1.06,0,0,.09,0,0,0-.09,0,0,0,.07,0,0,0-.07,0,.11.08,0,0-.11-.07v.07l0,0v-.08l0,0,0,.1,0,0v-.1l0,0v.11l0,0,0-.12,0,0v.16h0l-.14-.09v.05l.1.06v0l-.1-.06v0l.09.06v0l-.08-.05v0l.06,0v0l-.07,0v.14h0v-.13l-.06,0v0l.07,0v0l-.09,0v0l.1,0v0l-.11,0v0l.11-.05v0l-.16.07h0v-.17l0,0v.12l0,0V53.2l0,0v.1h0v-.09h0v.08l0,0v-.08l-.13.06v0l.12-.06-.06-.05,0,0,.06,0,0,0-.08-.06,0,0,.08.06,0,0-.1-.07,0,0,.1.07h0l-.13-.1h0l.15-.08,0,0-.1,0,0,0,.11-.06,0,0-.09,0,0,0,.09,0,0,0-.06,0,0,0,.06,0-.11-.07,0,0,.11.08V52.7l0,0v.08l0,0v-.1l0,0,0,.1,0,0v-.12l0,0v.11l0,0,0-.17h0l.14.09v0l-.1-.06v-.05l.1.07v0l-.08-.05v0l.08.05v0l-.07,0v-.05l.06,0v-.13h0v.14l.07,0v0l-.06,0v0l.09,0v0l-.09,0v0l.1,0v0l-.11,0v.05l.15-.07h0V53l0,0v-.12l0,0v.12l0,0v-.1l0,0v.1l0,0v-.07l0,0v.07l.12,0,0,0-.13.06Zm-.38.38,0-.13-.06,0v.05l-.05,0v.07Zm-.13-.15,0,0v0l-.07,0v.13l.11-.05Zm-.24-.11.1.08.07,0,0,0,0,0-.07,0Zm.15-.21v.12l.06.05v-.06l.05,0v-.07Zm.14.14.05,0V53l.06,0v-.12l-.12,0Zm.13,0-.07,0,0,0,0,0,.06,0,.11-.06Z" transform="translate(-227.53 -44.46)"/>
  <rect class="cls-3" x="315.8" y="56.53" width="1.49" height="1.32" transform="matrix(0.08, -1, 1, 0.08, 6.75, 323.7)"/>
  <path class="cls-1" d="M317.15,57l0,0L317,57l0,0,.1.08-.05,0-.1-.07-.05,0,.12.09-.05,0-.12-.09,0,0,.16.12h0l-.18.09,0,0,.13-.07,0,0-.12.07,0,0,.11-.06,0,0-.11,0,.05,0,.08,0,0,0-.08,0,.14.1,0,0-.13-.1,0,.09,0,0V57.5l0,0,0,.12,0,0v-.12l0,0,0,.14,0,0v-.14l0,0,0,.21h0l-.17-.12v.06l.12.07v.06l-.12-.08v.05l.11.07v0l-.1-.06v.05l.08,0v.05l-.08-.05v.17h-.05v-.17l-.08,0v-.06l.09,0v-.06l-.11.05v-.05l.12,0v-.05l-.13.05v-.05l.13-.06v-.05l-.19.08h0v-.2l-.05,0v.14l0,0v-.15l0,0v.12l-.05,0v-.12l-.05,0v.09l-.05,0v-.1l-.15.08,0-.05.15-.07-.07,0,.05,0,.07.06.05,0-.1-.08.05,0,.1.07,0,0-.11-.09.05,0,.11.09.05,0-.17-.12h0l.19-.09-.05,0-.12.07,0,0,.13-.06,0,0-.11.05L316,57l.11-.05,0,0L316,57l0,0,.08,0-.14-.1,0,0,.14.1v-.1l.05,0,0,.09.05,0v-.12l.05,0,0,.12.05,0v-.15l.05,0,0,.14,0,0,0-.21h0l.17.11v-.05l-.12-.07v-.06l.12.08v0l-.1-.07v-.05l.11.06v-.05l-.08,0v0l.07,0,0-.17h.05l0,.17.09,0v.06l-.08,0v.06l.12,0v0l-.11.05v0l.13,0v0l-.13.06v0l.19-.08h0v.2l0,0v-.14l.05,0V57l.05,0v-.12l0,0V57l.05,0v-.09l.05,0v.09l.15-.07,0,0-.15.07Zm-.47.46,0-.15-.08,0v.06l-.05,0v.09Zm-.17-.18-.06,0v-.07l-.08,0v.16l.14-.06Zm-.29-.13.13.09.08,0-.05,0,.06,0-.08,0Zm.19-.26,0,.15.07.05V57l.06,0V57Zm.17.17.06,0v.06l.09,0v-.15l-.14.06Zm.16,0-.09,0,.06,0-.06,0,.07.05.14-.07Z" transform="translate(-227.53 -44.46)"/>
  <rect class="cls-3" x="312.82" y="57.63" width="1.77" height="1.57" transform="translate(2.91 322) rotate(-85.42)"/>
  <path class="cls-1" d="M314.43,58.21l-.06,0-.09-.07-.06,0,.12.09-.06,0-.11-.08-.06,0,.14.11-.06,0-.14-.11-.05,0,.19.14h0l-.21.12,0,0,.15-.08.05,0-.15.08.05,0,.13-.06.05,0-.13.07.06,0,.09-.06.06,0-.1.05.16.11,0,0-.16-.11,0,.11-.05,0v-.11l-.05,0,0,.14-.05,0,0-.14-.05,0,0,.18-.06,0,0-.17-.05,0,0,.25h0l-.21-.14v.06l.15.1v.06l-.14-.09v.06l.13.08v.06l-.12-.07V59l.1.06v.06l-.09-.06,0,.2h-.05v-.2l-.1,0v-.06l.1,0V59l-.13.06V59l.14-.05v-.07l-.16.07v-.06l.16-.07v-.06l-.22.1h0v-.25l-.06,0v.17l-.06,0v-.17l-.06,0v.15l-.06,0v-.15l-.06,0v.11l-.06,0v-.11l-.18.08,0,0,.18-.09-.09-.06.06,0,.09.07.06,0-.12-.09.06,0,.11.09.06,0-.14-.1.06,0,.14.11.05,0-.19-.14h0l.22-.12-.05,0-.16.08-.05,0,.15-.08-.05,0-.13.06,0,0,.13-.07-.05,0-.1.06-.06,0,.1-.05-.16-.12,0,0,.16.11,0-.11.05,0V58l.05,0,0-.14.05,0,0,.15.05,0,0-.17.06,0,0,.17.05,0,0-.25h0l.2.14V58l-.15-.09v-.06l.14.09v-.06l-.13-.08v-.07l.12.08v-.06l-.1-.06v-.06l.09.06,0-.2h.05v.2l.1,0v.06l-.1,0v.07l.13-.06v.06l-.14.06V58l.16-.06V58l-.16.07v.06L314,58h0v.25l.06,0v-.17l.06,0v.17l.06,0V58l.06,0v.15l.06,0V58l.06,0v.11l.17-.08,0,.05-.18.08Zm-.56.55,0-.18-.09-.07v.08l-.07,0v.11Zm-.2-.22-.08,0V58.5l-.1,0v.19l.17-.08Zm-.34-.16.14.11.1,0-.06-.05.07,0-.09-.06Zm.21-.31,0,.18.09.07v-.08l.07,0v-.11Zm.2.21.08,0v.08l.1,0V58.1l-.17.07Zm.2.06-.1,0,.06,0-.07,0,.09.06.16-.09Z" transform="translate(-227.53 -44.46)"/>
  <rect class="cls-3" x="310.29" y="56.52" width="1.54" height="1.36" transform="translate(1.69 318.25) rotate(-85.42)"/>
  <path class="cls-1" d="M311.69,57l-.05,0-.08-.06-.05,0,.11.08-.06,0-.1-.07,0,0,.12.09,0,0-.12-.09,0,0,.17.12h0l-.19.1,0,0,.13-.07,0,0-.13.07,0,0,.11-.06,0,0-.11.05,0,0,.09-.05,0,0-.08.05.14.09,0,0-.14-.1v.09l0,0,0-.09-.05,0v.12l-.05,0v-.13l0,0,0,.15,0,0V57.4l0,0,0,.21h0l-.18-.11v.05l.13.08v.06l-.12-.08v.05l.11.07v0l-.11-.06v.05l.08,0v.06L311,57.8V58h0v-.17l-.09,0v-.06l.09,0v-.06l-.12,0v0l.11,0v-.06l-.14.06v-.06l.13,0v-.06l-.2.09h0v-.21l0,0v.15l0,0v-.15l0,0v.12l-.05,0v-.13l0,0v.1l-.05,0v-.09l-.15.07,0,0,.15-.08-.07,0,.05,0,.07.06.05,0-.1-.08.05,0,.1.07,0,0-.12-.09.06,0,.11.09.05,0-.17-.13h0l.19-.09,0,0-.14.07,0,0,.13-.06-.05,0-.11.06,0,0,.11-.06,0,0-.08.05,0,0,.09,0-.14-.1,0,0,.15.1v-.1l0,0v.09l.05,0v-.12l.05,0,0,.12,0,0,0-.14,0,0,0,.15.05,0,0-.21h0l.18.11v0l-.12-.08v-.06l.13.08v0l-.1-.07v-.06l.11.07v-.05l-.08,0v-.06l.08.05v-.17h0v.17l.08,0v0l-.09,0v.05l.11-.05v.06l-.12.05v0l.14,0v0l-.14.06v0l.19-.08h0v.21l0,0v-.15l0,0V57l.05,0v-.13l.05,0V57l.05,0v-.09l.05,0v.1l.16-.07,0,0-.16.07Zm-.48.48v-.16l-.08-.06v.07l-.06,0v.09Zm-.18-.19-.06,0v-.07l-.09,0v.16l.14-.06Zm-.29-.14.12.1.09,0-.06,0,.06,0-.07,0Zm.18-.27,0,.16.08,0v-.06l.06,0V57Zm.18.19.06,0v.07l.08,0v-.16l-.14.06Zm.17,0-.09,0,.05,0-.06,0,.08.06.14-.08Z" transform="translate(-227.53 -44.46)"/>
  <rect class="cls-3" x="308.12" y="51.84" width="1.19" height="1.05" transform="translate(4.34 311.46) rotate(-85.42)"/>
  <path class="cls-1" d="M309.2,52.23l0,0-.06,0,0,0,.08.06,0,0-.08-.06,0,0,.1.07-.05,0-.09-.07,0,0,.13.09h0l-.15.08,0,0,.1-.05,0,0-.1.06,0,0,.08,0,0,0-.09,0,0,0,.06,0,0,0-.07,0,.11.08,0,0-.11-.08v.08l0,0v-.07l0,0v.09l0,0v-.1l0,0v.11l0,0v-.12l0,0,0,.16h0l-.14-.09v0l.1.07v0l-.1-.06v0l.09,0v0l-.08,0v0l.06,0v0l-.07,0V53h0v-.14l-.07,0v0l.07,0v0l-.09,0v-.05l.09,0v-.05l-.11.05v0l.1,0v0l-.15.07h0v-.17l0,0v.11l0,0v-.11l0,0v.09l0,0v-.09h0v.08l0,0v-.08l-.12.06v0l.12-.05-.06,0,0,0,.06.05,0,0-.07-.06,0,0,.07.06,0,0-.09-.07h0l.09.06h0l-.13-.1h0l.14-.07,0,0-.1.06,0,0,.1-.05,0,0-.09.05,0,0,.08,0,0,0-.07,0,0,0,.06,0-.11-.07,0,0,.11.08V52l0,0v.07l0,0V52l0,0v.09l0,0,0-.12,0,0v.11l0,0,0-.16h0l.14.09v0l-.09-.06V52l.1.07v0l-.08-.05v0l.08.05v0l-.07,0v0l.06,0v-.14h0v.13l.07,0v0l-.07,0v0l.09,0v0l-.09,0v0l.11,0v0l-.11,0v0l.15-.06h0v.16l0,0v-.11l0,0v.11h0v-.1l0,0v.1l0,0V52.1l0,0v.07l.12-.06,0,0-.12.06Zm-.38.37v-.13l-.06,0v0l0,0v.07Zm-.13-.15-.05,0v0l-.07,0v.13l.11,0Zm-.23-.1.1.07.06,0,0,0,.05,0-.06,0Zm.14-.21v.12l.06,0v0l0,0V52.2Zm.14.14.05,0v.05l.07,0v-.12l-.12.05Zm.13,0-.07,0,0,0,0,0,.06,0,.1,0Z" transform="translate(-227.53 -44.46)"/>
  <rect class="cls-3" x="305" y="55.68" width="1.32" height="1.16" transform="translate(-2.34 312) rotate(-85.42)"/>
  <path class="cls-1" d="M306.2,56.11l-.05,0-.06-.05,0,0,.08.06,0,0-.09-.06,0,0,.1.08,0,0-.1-.08,0,0,.14.11h0l-.16.08,0,0,.11-.06,0,0-.11.06,0,0,.09-.05,0,0-.09,0,0,0,.08,0,0,0-.08,0,.13.08,0,0-.12-.08v.08l0,0v-.08l0,0v.11l0,0v-.1l0,0v.13l0,0v-.13l0,0,0,.18h0l-.16-.1v0l.11.07v0l-.1-.07v.05l.09.06v0l-.09,0v0l.06,0v.05l-.07,0v.15h0v-.14l-.08,0v0l.07,0v0l-.1,0v0l.1-.05v0l-.11.05v-.05l.12,0v-.05l-.16.08h0v-.18l0,0v.12l-.05,0v-.12l0,0v.1l0,0v-.1l0,0v.08l0,0V56.5l-.13.06,0,0,.13-.06-.06-.05,0,0,.06,0,0,0-.09-.07,0,0,.09.07,0,0-.1-.08,0,0,.11.08,0,0-.15-.11h0l.16-.08,0,0-.11.06,0,0,.11-.06,0,0-.1,0,0,0,.1-.05,0,0-.07,0,0,0,.07,0-.12-.09,0,0,.12.08v-.08l0,0V56l0,0v-.1l0,0V56l0,0v-.13l0,0v.13l0,0,0-.18h0l.15.1V56l-.11-.06v-.05l.11.07v0l-.09-.06v0l.09.06v0l-.07,0v0l.07,0V55.6h.05l0,.15.08,0v.05l-.07,0v.05l.1-.05v.05l-.1,0v0l.12,0v0l-.12.05v0l.17-.07h0v.18l0,0V56l.05,0v.13l.05,0V56l0,0v.11l0,0V56l.05,0V56l.14-.06,0,0-.14.06Zm-.42.4,0-.13-.07-.05v.06l0,0v.08Zm-.15-.15-.05,0v-.06l-.07,0v.13l.13-.05Zm-.25-.12.11.08.07,0,0,0,.05,0-.07,0Zm.16-.24v.14l.06,0v-.06l0,0v-.08Zm.15.16.05,0v.06l.08,0V56l-.12,0Zm.14,0-.07,0,.05,0-.06,0,.07,0,.12-.06Z" transform="translate(-227.53 -44.46)"/>
  <rect class="cls-3" x="302.3" y="54.36" width="1.07" height="1.22" transform="translate(-231.1 -18.53) rotate(-4.87)"/>
  <path class="cls-1" d="M303.3,54.75l0,0-.07,0,0,0,.09.05,0,0-.09,0,0,0,.1.06,0,0-.1,0,0,0,.15.08h0L303,55l0,0,.09-.08,0,0-.09.07,0,0,.08-.06,0,0-.08.06,0,0,.06-.05,0,0-.06,0,.12.06,0,0-.12-.06v.08l0,0v-.07l0,0v.1l0,0v-.1l0,0v.12l0,0v-.12l0,0v.17h0l-.15-.07v0l.11,0v.05l-.11-.05v0l.09,0v0l-.1,0v0l.07,0v0l-.07,0v.14h0v-.13l-.06,0v0l.06,0v0l-.09,0v0l.08,0v-.05l-.1.07v0l.09-.06v0l-.14.09h0l0-.17,0,0v.11l0,0v-.12l0,0,0,.1,0,0v-.1l0,0v.07l0,0v-.08l-.11.08,0,0,.11-.08-.06,0,0,0,.07,0,0,0-.09-.05,0,0,.09,0,0,0-.11,0,0,0,.1.05,0,0L302.5,55h0l.13-.1h0l-.1.07,0,0,.09-.07,0,0-.08.06,0,0,.08-.06,0,0-.06.05,0,0,.06,0-.13-.05,0,0,.12.06v-.08l0,0v.08h0v-.09h0v.1l0,0V54.7l0,0v.12l0,0v-.17h0l.15.07v0l-.11,0v0l.11,0v0l-.09,0v0l.09,0v0l-.07,0v0l.07,0v-.14h0v.13l.07,0v0l-.06,0v0l.08,0v0l-.09.06v0l.1-.07v0l-.1.06v0l.14-.09h0l0,.17,0,0,0-.12,0,0v.12l0,0v-.1l0,0,0,.1,0,0v-.08l0,0v.07l.11-.08,0,0-.11.08Zm-.32.43v-.13l-.06,0v.06l-.05,0v.08Zm-.16-.12,0,0V55l-.06,0v.12l.11-.07Zm-.25-.07.11.06.07,0-.05,0,0,0-.07,0Zm.11-.24v.13l.07,0v0l0,0V54.8Zm.16.12.05,0v.06l.06,0,0-.12-.1.07Zm.14,0-.06,0,.05,0-.05,0,.07,0,.1-.08Z" transform="translate(-227.53 -44.46)"/>
  <rect class="cls-3" x="299.51" y="56.22" width="1.52" height="1.72" transform="translate(-231.29 -18.74) rotate(-4.87)"/>
  <path class="cls-1" d="M300.93,56.77l-.05,0-.1,0,0,0,.13.06-.05,0-.13-.06-.05,0,.15.08,0,0-.15-.07-.05,0,.21.11h0l-.19.14.06,0,.13-.1.06,0-.14.1.06,0,.11-.09.06,0-.11.08.05,0,.09-.07.05,0-.08.07.17.08,0,0-.18-.08v.1l-.06,0v-.11l-.06,0v.14l-.06,0v-.14l-.06,0v.17l-.06,0v-.17l-.05,0v.24h0l-.21-.1v.06l.15.07v.06l-.15-.07v.06l.13.06v.06l-.13-.05v.06l.1,0v.06l-.09,0v.19h-.05l0-.2-.09.06v-.06l.09-.06v-.06l-.12.08v-.07l.12-.07V57.5l-.14.09v-.06l.13-.09v-.06l-.2.13h0l0-.24,0,0,0,.17-.06,0,0-.17-.05,0,0,.13-.05,0,0-.14,0,0,0,.1-.06,0v-.11l-.16.11,0,0,.16-.11-.1,0,.06,0,.09,0,.05,0-.12-.07.05,0,.12.07.05,0-.15-.08.06,0,.14.08.05,0-.21-.11h0L300,57l-.05,0-.13.1-.06,0,.13-.1-.05,0-.12.08,0,0,.11-.09-.06,0-.08.06-.06,0,.09-.06-.18-.08,0-.05.17.08v-.11l.05,0v.11l.05,0v-.14l0,0v.14l0,0v-.16l.05,0v.16l.05,0v-.24h0l.22.09v-.06l-.15-.06V56.6l.15.06V56.6l-.13-.05v-.07l.13.06v-.06l-.09,0v-.07l.1.05,0-.2h.06v.19l.09-.06v.07l-.09,0v.06l.12-.07v.06l-.12.08v.06l.14-.09v.06l-.14.09v.06l.2-.13h0l0,.23.05,0,0-.16.05,0,0,.16,0,0,0-.14.06,0v.14l.05,0V56.6l.05,0v.1l.16-.11,0,0-.15.11Zm-.45.61V57.2l-.09,0v.07l-.07,0v.11Zm-.22-.17-.07,0v-.08l-.08.07,0,.17.14-.1Zm-.35-.1.15.08.09-.06-.07,0,.06,0-.09,0Zm.15-.33V57l.1,0v-.08l.07,0v-.1Zm.23.17.06,0V57l.09-.06,0-.17-.15.09Zm.19,0-.09.06.07,0-.06,0,.1,0,.14-.1Z" transform="translate(-227.53 -44.46)"/>
  <rect class="cls-3" x="297" y="57.35" width="1.23" height="1.39" transform="translate(-231.38 -18.96) rotate(-4.87)"/>
  <path class="cls-1" d="M298.15,57.8l0,0-.07,0,0,0,.1.06,0,0-.1,0,0,0,.12.06,0,0-.12-.06,0,0L298,58h0l-.16.12.05,0,.1-.08.05,0-.11.08.05,0,.09-.07,0,0-.09.07.05,0,.06,0,.05,0-.07,0,.14.07,0,0-.14-.06v.08l-.05,0v-.09l-.05,0v.12l-.05,0v-.12l0,0v.14l-.05,0v-.13l-.05,0v.19h0l-.17-.08v0l.13.05v.06l-.12-.06v0l.11,0v.05l-.11-.05v.05l.08,0v.06l-.08,0,0,.16h-.05v-.15l-.07,0v-.05l.07,0v0l-.1.06v0l.1-.06v0l-.11.07v-.05l.12-.07v-.05l-.16.1h0l0-.19,0,0,0,.13,0,0,0-.13,0,0v.11l0,0v-.11l0,0v.09l0,0v-.09l-.13.09,0,0,.13-.08-.08,0,.05,0,.07,0,0,0-.1-.05,0,0,.1,0,0,0-.12-.06.05,0,.12.06,0,0-.17-.09h0l.16-.12-.05,0-.1.09-.05,0,.11-.08-.05,0-.09.07,0,0,.09-.07,0,0-.06,0-.05,0,.07,0-.14-.07,0,0,.14.07v-.09l.05,0v.09l.05,0v-.11l0,0v.11l.05,0v-.13l.05,0v.13l.05,0v-.19h0l.17.08v-.05l-.13,0v-.05l.12.05v-.05l-.11,0v0l.11,0v0l-.08,0v-.05l.08,0,0-.15h.05v.16l.07,0v0l-.07.05v0l.1-.07v.06l-.1.06v.05l.11-.08v0l-.12.08v0l.16-.1h0l0,.19,0,0,0-.13,0,0,0,.13,0,0v-.12l0,0v.12l0,0v-.09l0,0v.09l.13-.09,0,0-.13.09Zm-.37.49v-.14l-.08,0v.06l-.05,0v.08Zm-.18-.14-.05,0v-.06l-.07.05,0,.14.12-.07Zm-.28-.08.13.07.07,0-.06,0,.05,0-.08,0Zm.13-.27V58l.08,0v-.06l.05,0v-.08Zm.18.14.05,0V58l.07,0,0-.14-.12.07Zm.15,0-.07,0,.06,0,0,0,.08,0,.11-.09Z" transform="translate(-227.53 -44.46)"/>
  <rect class="cls-3" x="294.26" y="56.15" width="1.01" height="1.14" transform="translate(-231.28 -19.21) rotate(-4.87)"/>
  <path class="cls-1" d="M295.2,56.51l0,0-.06,0,0,0,.08,0,0,0-.09-.05,0,0,.1.05,0,0-.09,0,0,0,.14.07h0l-.13.1h0l.09-.06,0,0-.09.06,0,0,.07-.06,0,0-.07.06h0l.06,0,0,0-.06,0,.12.06,0,0-.11,0V57l0,0v-.07l0,0V57h0v-.1h0V57l0,0v-.11l0,0V57h0l-.14-.06v0l.1,0v0l-.11,0v0l.08,0v0l-.09,0v0l.07,0v0l-.06,0v.13h0v-.13l-.06,0v0l.06,0v0l-.07.05v0l.08-.05v0l-.1.06v0l.09-.06v0l-.13.08h0l0-.15,0,0V57l0,0,0-.11,0,0V57l0,0v-.09l0,0V57l0,0V57l-.11.07,0,0,.11-.07-.06,0,0,0,.06,0,0,0-.09,0,0,0,.08,0,0,0-.1,0,0,0,.1.05,0,0-.14-.07h0l.12-.1h0l-.09.06h0l.09-.07,0,0-.08.06,0,0,.08-.06h0l-.05,0,0,0,.05,0-.11-.06v0l.12.06v-.08l0,0v.07l0,0v-.09h0v.1l0,0v-.12l0,0v.11l0,0v-.16h0l.15.06v0l-.1-.05v0l.1,0v0l-.09,0v0l.08,0v0l-.07,0v0l.07,0v-.13h0v.13l.06,0v0l-.06,0v0l.08,0v0l-.08,0v0l.09-.06v0l-.09.06v0l.14-.08h0v.15l0,0,0-.11,0,0v.11l0,0v-.09l0,0v.09l0,0v-.07l0,0v.07l.11-.07,0,0-.1.07Zm-.3.41V56.8l-.07,0v0l0,0v.07Zm-.15-.11,0,0v0l-.06,0,0,.12.1-.06Zm-.23-.07.1,0,.06,0,0,0,0,0-.07,0Zm.1-.22v.12l.06,0v-.05l.05,0v-.07Zm.15.11.05,0v0l.06,0V56.5l-.1.06Zm.13,0-.06,0,.05,0,0,0,.06,0,.09-.07Z" transform="translate(-227.53 -44.46)"/>
  <rect class="cls-3" x="290.91" y="52.2" width="1.6" height="1.82" transform="translate(-230.99 -19.48) rotate(-4.87)"/>
  <path class="cls-1" d="M292.41,52.78l-.06,0-.09,0-.06,0,.14.07-.06,0-.13-.07,0,0,.15.08-.05,0-.16-.08L292,53l.22.12h0l-.2.15.06,0,.14-.1.06,0-.14.1.06,0,.12-.09.06,0-.12.09.06,0,.08-.06.07,0-.09.07.18.09,0,.05-.18-.08v.11l-.07,0v-.11l-.06,0v.15l-.06,0v-.15l-.06,0v.18l-.06,0V53.3l-.05,0v.25h0l-.23-.1v.06l.16.07v.07l-.16-.07v.06l.13.06v.07l-.14-.06v.06l.1,0v.06l-.11,0,0,.2h-.06l0-.21-.09.07v-.07l.1-.06v-.07l-.12.09V53.7l.13-.08v-.07l-.15.1v-.07l.15-.09v-.06l-.21.13h0l0-.25-.05,0,0,.17-.05,0,0-.17-.06,0,0,.15-.05,0,0-.15-.05,0v.11l-.05,0,0-.11-.16.11,0,0,.17-.11-.1-.05.05,0,.1.05.06,0-.14-.06.06,0,.13.07.05,0-.15-.08.05,0,.16.08.05,0-.23-.12h0l.21-.15-.06,0-.14.1-.06,0,.14-.1-.06,0-.12.09-.06,0,.12-.09-.06,0-.09.07-.06,0,.09-.06-.18-.09,0,0,.19.08v-.11l.06,0v.11l.06,0v-.15l.06,0v.15l.05,0v-.17l.06,0v.17l.06,0V52.7h0l.23.1v-.07l-.16-.06V52.6l.17.07V52.6l-.14-.05v-.07l.14.06v-.07l-.1,0v-.07l.1,0v-.2h.06v.2l.1-.06v.07l-.09.06v.06l.13-.08v.07l-.13.08v.06l.14-.09v.07l-.15.09v.06l.21-.13h0l0,.24.05,0,0-.18.05,0,0,.17.05,0v-.14l0,0,0,.15.05,0v-.11l.05,0,0,.11.16-.12,0,0-.17.12Zm-.47.65v-.19l-.1-.05v.08l-.07,0v.11Zm-.24-.18-.07,0v-.08l-.09.07,0,.18.16-.1Zm-.37-.11.16.09.1-.07-.08,0,.07-.05-.1,0Zm.16-.35V53l.1,0v-.08l.07,0v-.12Zm.24.18.07,0V53l.09-.07,0-.18-.16.1Zm.21,0-.1.07.07,0-.06,0,.1,0,.15-.11Z" transform="translate(-227.53 -44.46)"/>
  <rect class="cls-3" x="288.43" y="54.85" width="1.54" height="1.74" transform="translate(-231.22 -19.68) rotate(-4.87)"/>
  <path class="cls-1" d="M289.86,55.4l-.05,0-.09,0-.05,0,.12.06-.05,0-.13-.07-.05,0,.15.07,0,0-.15-.08-.05,0,.22.11h0l-.19.14.06,0,.13-.11.06,0-.14.1.06,0,.11-.09.06,0-.11.09.05,0,.09-.06.06,0-.09.07.18.08,0,0L289.8,56v.11l-.06,0V56l-.06,0v.14l-.06,0V56l-.06,0v.17l-.06,0V55.9l-.05,0v.24h0l-.22-.09v.06l.15.06v.07l-.16-.07v.06l.13.06v.06l-.13-.06v.07l.1,0v.06l-.1,0,0,.19h-.06v-.2l-.09.06v-.06l.09-.06v-.06l-.12.08v-.07l.12-.07v-.07l-.14.1v-.07l.14-.09V56l-.2.13h0l0-.24,0,0,0,.16-.06,0,0-.17-.05,0,0,.14-.05,0,0-.14-.05,0v.11l-.05,0v-.1l-.16.11,0-.05.16-.11-.1,0,.05,0,.1,0,.05,0-.13-.07,0,0,.13.06.05,0-.15-.08.05,0,.15.08.05,0-.21-.11h0l.19-.15-.05,0-.14.1-.06,0,.14-.1-.06,0-.11.08-.06,0,.12-.08-.06,0-.09.07-.05,0,.08-.06-.17-.09,0,0,.18.08v-.1l.06,0v.11l.06,0v-.15l.06,0v.14l.05,0v-.17l.06,0v.17l.05,0v-.24h0l.22.1v-.06l-.16-.07v-.06l.15.07v-.07l-.13,0v-.07l.13.06v-.06l-.1,0V55l.1,0,0-.2h.06l0,.19.09-.06v.07l-.09.05v.07l.12-.08v.06l-.12.08v.06l.14-.09v.06l-.15.09v.06l.2-.13h0l0,.24.05,0,0-.17.05,0,0,.17.05,0,0-.15.06,0v.14l.05,0v-.1l.05,0,0,.11.16-.11,0,0-.16.11Zm-.45.62v-.18l-.1,0v.07l-.07,0V56Zm-.23-.17-.06,0v-.08l-.09.07,0,.17.15-.09Zm-.35-.1.15.08.09-.06-.06,0,.06,0-.1,0Zm.15-.34v.18l.1,0v-.08l.07,0v-.11Zm.23.17.07,0v.08l.09-.06,0-.18-.15.1Zm.2,0-.09.07.07,0-.06,0,.09,0,.15-.1Z" transform="translate(-227.53 -44.46)"/>
  <g id="Snow-9">
    <path class="cls-1" d="M330.48,67.53c5.13.1,8.6-1.09,10.62-.33a4.8,4.8,0,0,0,4.39,0c1.65-.65,5.5-1.09,7,.54,0,0,3.3,1.09,4.4-1.41.08-.2.13-.37.19-.56-2-2-1.8-4.26-6.79-3.67s-9.51-1.82-13.17-1.22-8.43,1-10.62,2.43a8.55,8.55,0,0,0-2,1.62A8.63,8.63,0,0,0,330.48,67.53Z" transform="translate(-227.53 -44.46)"/>
    <path class="cls-2" d="M326.46,68.38a13.31,13.31,0,0,0,7.32.81,17.06,17.06,0,0,1,6.22-.42c1.9,0,2.17,1.32,4.37.3s3.75-.86,5.21.35,1.77,1.19,3.6,1.39,6.22-2.84,4-4.86l-.17-.18c-.06.19-.11.36-.19.56-1.1,2.5-4.4,1.41-4.4,1.41-1.46-1.63-5.31-1.19-7-.54a4.8,4.8,0,0,1-4.39,0c-2-.76-5.49.43-10.62.33a8.63,8.63,0,0,1-6-2.6C323.71,65.9,323.92,67,326.46,68.38Z" transform="translate(-227.53 -44.46)"/>
  </g>
</svg>
