<?xml version="1.0"?>
<svg xmlns="http://www.w3.org/2000/svg" xmlns:xlink="http://www.w3.org/1999/xlink" id="&#x421;&#x43B;&#x43E;&#x439;_1" data-name="&#x421;&#x43B;&#x43E;&#x439; 1" viewBox="0 0 28.03 20.61">
  <defs>
    <style>.cls-1{fill:#dde5f0;}.cls-2{fill:#fff;}.cls-3{fill:url(#New_Gradient_Swatch_1);}.cls-4{fill:url(#New_Gradient_Swatch_1-2);}.cls-5{fill:url(#New_Gradient_Swatch_1-3);}.cls-6{fill:url(#New_Gradient_Swatch_1-4);}.cls-7{fill:url(#New_Gradient_Swatch_1-5);}</style>
    <linearGradient id="New_Gradient_Swatch_1" x1="245.29" y1="5953.69" x2="245.94" y2="5953.69" gradientTransform="matrix(1, 0.02, 0.02, -1, -65.7, 6047.88)" gradientUnits="userSpaceOnUse">
      <stop offset="0" stop-color="#edf1f2"/>
      <stop offset="0.43" stop-color="#e8eef0"/>
      <stop offset="0.97" stop-color="#d8e5e9"/>
      <stop offset="1" stop-color="#d7e4e8"/>
    </linearGradient>
    <linearGradient id="New_Gradient_Swatch_1-2" x1="246.68" y1="5954.16" x2="247.34" y2="5954.16" xlink:href="#New_Gradient_Swatch_1"/>
    <linearGradient id="New_Gradient_Swatch_1-3" x1="234.71" y1="5953.01" x2="235.35" y2="5953.01" xlink:href="#New_Gradient_Swatch_1"/>
    <linearGradient id="New_Gradient_Swatch_1-4" x1="310.07" y1="101.26" x2="295.32" y2="101.26" gradientTransform="matrix(1, 0, 0, 1, 0, 0)" xlink:href="#New_Gradient_Swatch_1"/>
    <linearGradient id="New_Gradient_Swatch_1-5" x1="8252.58" y1="4054.97" x2="8257.14" y2="4054.97" gradientTransform="matrix(-0.6, -0.8, -0.8, 0.6, 8526.05, 4245.03)" xlink:href="#New_Gradient_Swatch_1"/>
  </defs>
  <title>snow-button-2</title>
  <path class="cls-1" d="M291.92,100s5.37-.9,8.5.09c2.25.43,4.95,1.86,8,.61,7.12.22,5.78-2.64,8.59-6.07,0,.67,1.62,3.37,1.24,6.48-.75,1.19-.89,2.52-2.15,2.84-.43,2.09-1.52,3.71-2.24,3.86-.42,1.32-.65,2-1.08,2-.23,1.81-.78,1.61-.77.44a19.81,19.81,0,0,1,.19-4.67c-1-.43-.58-1.29-.78-1.79-1.56,1.09-4.93.23-5.71.24-.28,2.19.06,3-.81,3.77-.19,2.56-.47,4.08-1.05,4.53-.31,2.47-1.45,3.58-1.74-.2a17.62,17.62,0,0,1,.08-3.92c-.5-.48-.25-2.42-.06-3.91-1.14-.27-1.27-.82-2.86-.81-.31.64-1.32.39-2,.35a13.57,13.57,0,0,1-.72,3.49c0,1.64-1.41,2.86-1-.21-.76,0-.31-1.35-.2-3C294,103.38,291.92,100,291.92,100Z" transform="translate(-290.6 -94.09)"/>
  <path class="cls-2" d="M292,100.11s5.31-2,8.44-1c2.25.43,4.95,1.86,8,.61,7.12.22,5.74-4.9,7-5.6,0,.67,3.21,2.9,2.83,6-.75,1.19-.89,2.52-2.15,2.84-.43,2.09-1.52,3.71-2.24,3.86-.42,1.32-.65,2-1.08,2-.23,1.81-.78,1.61-.77.44a19.81,19.81,0,0,1,.19-4.67c-1-.43-.58-1.29-.78-1.79-1.56,1.09-4.93.23-5.71.24-.28,2.19.06,3-.81,3.77-.19,2.56-.47,4.08-1.05,4.53-.31,2.47-1.45,3.58-1.74-.2a17.62,17.62,0,0,1,.08-3.92c-.5-.48-.25-2.42-.06-3.91-1.14-.27-1.27-.82-2.86-.81-.31.64-1.32.39-2,.35a13.57,13.57,0,0,1-.72,3.49c0,1.64-1.41,2.86-1-.21-.76,0-.31-1.35-.2-3A19.37,19.37,0,0,1,292,100.11Z" transform="translate(-290.6 -94.09)"/>
  <path class="cls-2" d="M303.21,114.7c-.85-1.75-.58-1.39-1.93-1,1.55-.67,1.18-.48.68-2,.88,1.4.41,1.4,2,1C303,113.2,302.59,112.92,303.21,114.7Z" transform="translate(-290.6 -94.09)"/>
  <path class="cls-2" d="M292.53,101.61c-.86-1.75-.58-1.39-1.93-1,1.54-.67,1.18-.48.68-2,.88,1.4.41,1.4,2,1C292.27,100.11,291.91,99.83,292.53,101.61Z" transform="translate(-290.6 -94.09)"/>
  <path class="cls-2" d="M318.07,103.6c-.66-1.33-.44-1.06-1.48-.79,1.18-.52.91-.37.53-1.55.66,1.08.3,1.08,1.51.8C317.87,102.46,317.59,102.25,318.07,103.6Z" transform="translate(-290.6 -94.09)"/>
  <path class="cls-3" d="M309.94,101c.18.19-.51,0-.59,0a2.91,2.91,0,0,0,0-.41l0,0C310.14,100.39,309.82,100.81,309.94,101Z" transform="translate(-290.6 -94.09)"/>
  <path class="cls-4" d="M311.34,100.64c0,.27-.51,0-.59,0s0-.31,0-.4,0,0,0,0C311.54,100.09,311.42,99.28,311.34,100.64Z" transform="translate(-290.6 -94.09)"/>
  <path class="cls-5" d="M299.34,101.4c.19.2-.51,0-.59-.05a2.8,2.8,0,0,0,0-.4l0,0C299.54,100.84,299.22,101.26,299.34,101.4Z" transform="translate(-290.6 -94.09)"/>
  <path class="cls-6" d="M310.07,102.21a5.58,5.58,0,0,0-3.39-.15,11.46,11.46,0,0,1-6.34.15c-1.78-.59-3.25-2.07-5-2.21a8,8,0,0,1,3.83.44,4.45,4.45,0,0,0,4,.73,8.32,8.32,0,0,1,4.72,0C308.74,101.62,310.07,102.21,310.07,102.21Z" transform="translate(-290.6 -94.09)"/>
  <path class="cls-7" d="M312.39,106.86s1.75-.83,1.79-1.9.42-3.56,1.39-4.54a15.44,15.44,0,0,0,2.5-2.9s-.23,2.91-1.15,3.55-.95.64-1.33,1.54c-.61,1.44-.63,3-1.21,3.42A8,8,0,0,1,312.39,106.86Z" transform="translate(-290.6 -94.09)"/>
</svg>
