<?xml version="1.0"?>
<svg xmlns="http://www.w3.org/2000/svg" id="&#x421;&#x43B;&#x43E;&#x439;_1" data-name="&#x421;&#x43B;&#x43E;&#x439; 1" viewBox="0 0 166.89 27.56">
  <defs>
    <style>.cls-1{fill:#fff;}.cls-2{fill:#dde5f0;}.cls-3{fill:none;}</style>
  </defs>
  <title>winter-maim-button</title>
  <g id="Snow">
    <path class="cls-1" d="M371.46,66.15c5.13.1,8.61-1.09,10.62-.33a4.8,4.8,0,0,0,4.39,0c1.65-.65,5.5-1.09,7,.54,0,0,3.3,1.09,4.4-1.41.08-.2.13-.37.19-.56-2-2-1.8-4.26-6.79-3.67s-11.07-4.55-14.73-3.95-6.87,3.74-9.06,5.16a8.55,8.55,0,0,0-2,1.62A8.63,8.63,0,0,0,371.46,66.15Z" transform="translate(-231.9 -47.63)"/>
    <path class="cls-2" d="M367.44,67a13.31,13.31,0,0,0,7.32.81,17.06,17.06,0,0,1,6.22-.42c1.91,0,2.17,1.32,4.37.3s3.75-.86,5.21.35,1.77,1.19,3.6,1.39,6.23-2.84,4-4.86l-.17-.18c-.06.19-.11.36-.19.56-1.1,2.5-4.4,1.41-4.4,1.41-1.46-1.63-5.31-1.19-7-.54a4.8,4.8,0,0,1-4.39,0c-2-.76-5.49.43-10.62.33a8.63,8.63,0,0,1-6-2.6C364.69,64.52,364.9,65.6,367.44,67Z" transform="translate(-231.9 -47.63)"/>
  </g>
  <g id="Snow-2">
    <path class="cls-1" d="M374,67.52c-3.14-2.72-6.68-.68-10.22-1s-11,.34-15.74,1-14.55,0-17.7-1-5.9,1.36-11.4.68c-3.93-.48-6.85-2.51-9.63-3,1.23-1.41,4.71-3.42,7.76-2.24a18.44,18.44,0,0,0,9.74,1.53c3.93-.34,12.58,3.39,15.73,1.69s8.65-5.43,12.58-4.07,5.31,1.79,9.74,1.62,7.18-.94,9.94.08,8.64-2.38,10.61,0c1.21,1.46,1.93,2.44,1.85,3.15a5.3,5.3,0,0,0-3.82,1.6C379.86,70.91,377.11,70.23,374,67.52Z" transform="translate(-231.9 -47.63)"/>
    <path class="cls-2" d="M386.06,67c-2,.76-4,5.48-7.83,4.52s-3.35-4.57-8.13-4.29-12.65-.74-17,.28-19.27,1-21.64,0-8.26,1-14.15.34c-2.85-.33-8-.93-7.87-2,0-.21.22.37.5.06,2.78.51,5,.79,8.94,1.27,5.5.68,8.26-1.7,11.4-.68s13,1.7,17.7,1,12.2-1.36,15.74-1,7.08-1.7,10.22,1,5.9,3.39,9.44,0a5.3,5.3,0,0,1,3.82-1.6C387.18,66.37,386.82,66.72,386.06,67Z" transform="translate(-231.9 -47.63)"/>
  </g>
  <g id="Snow-3">
    <path class="cls-1" d="M346.1,66.26c5.06-.61,5.81-1.51,5.81-1.51s1.69,2.17,6.15,2,6-.33,9.27-.63c2.13-.2,5.31-.65,7.29-.94a4.27,4.27,0,0,0-2-.88c-1.1-.14-5,.23-6.07,0-1.93-.41-2.26-1.08-2.27-1.2-.1-1.44-1.72,1.12-1.72,1.12-2.08-1.67-7.51-.43-13.58-.73s-8.18-.54-9.7.51a.8.8,0,0,0-.36.6C340,65.62,343.68,66.55,346.1,66.26Z" transform="translate(-231.9 -47.63)"/>
    <path class="cls-2" d="M345.09,68.22c1.77.76,4.27.57,5.29-.69s2-.52,4.06.24,5.81.3,8.09-.31c1.44-.38,13.26.84,12.76-1.43a1.82,1.82,0,0,0-.67-.86c-2,.29-5.16.74-7.29.94-3.29.3-4.8.45-9.27.63s-6.15-2-6.15-2-.75.9-5.81,1.51a6.11,6.11,0,0,1-5.16-1.67C340.87,65.77,343.6,67.58,345.09,68.22Z" transform="translate(-231.9 -47.63)"/>
  </g>
  <g id="Snow-4">
    <path class="cls-1" d="M311.92,67.34c-.83.87-1.31,1.54-2.91,1,.46-1,1.82-2.49.46-3.1-2-.88-.13-4.58,3.8-5.16s5.39,1.5,7.35,1.65.8,3.8,2.21,3.95c.56.06,2.63,0,4.92,0-2.26.31-4.6.39-6,.57C317.55,66.82,312.9,66.32,311.92,67.34Z" transform="translate(-231.9 -47.63)"/>
    <path class="cls-2" d="M326.38,67.18c-1.23.59-8.44.5-10,.19s-3.7.31-4.29,1.24c-1.07,1.69-1.4,1.36-2.87.77-.45-.18-.41-.55-.21-1,1.6.5,2.23-.64,3.4-1.34,1.84-1.1,4.64-.22,9.31-.73,1.44-.16,3.77-.26,6-.57,3.45,0,7.39-.13,7.39-.13C335.63,66.49,327.6,66.6,326.38,67.18Z" transform="translate(-231.9 -47.63)"/>
  </g>
  <rect class="cls-3" x="47.58" y="15.25" width="1.61" height="1.83"/>
  <path class="cls-1" d="M281,63.52l-.06,0-.1-.06-.05,0,.12.08-.06,0-.12-.08-.06,0,.15.1-.06,0-.15-.09-.05,0,.21.13h0l-.21.14.05,0,.15-.1.06,0-.15.09.06,0,.12-.08.06,0-.12.08.05,0L281,64l.06,0-.1.06.18.1,0,.06-.18-.11v.12l-.06,0v-.11l-.05,0v.15l-.06,0v-.15l-.06,0v.18l-.06,0V64l-.05,0v.25h0l-.22-.12v.06l.16.09v.06l-.16-.08v.06l.13.07v.07l-.13-.07v.07l.1,0v.07l-.1-.06v.21h-.06V64.5l-.1.06v-.07l.1,0v-.07l-.13.07v-.07l.13-.07v-.06l-.16.08v-.06l.16-.09v-.06l-.22.12h0V64l0,0v.18l-.06,0V64l-.06,0v.15l-.06,0v-.15l-.05,0v.11l-.06,0v-.12l-.18.11,0-.06.18-.1-.1-.06.06,0,.1.06,0,0-.12-.08.06,0,.12.08.06,0-.15-.09.06,0,.15.1.05,0-.21-.14h0l.21-.13-.05,0-.15.09-.06,0,.15-.1-.06,0-.12.08-.06,0,.12-.08,0,0-.1.06-.06,0,.1-.06-.18-.1,0,0,.18.1V63.3l.06,0v.12l.05,0v-.15l.06,0v.15l.06,0v-.17l.06,0v.18l0,0v-.25h0l.22.12v-.07l-.16-.08v-.07l.16.09v-.07l-.13-.07v-.07l.13.07v-.06l-.1,0V63l.1,0v-.2h.06v.2l.1,0v.07l-.1,0v.06l.13-.07v.07l-.13.07v.07l.16-.09v.07l-.16.08v.07l.22-.12h0v.25l.05,0V63.4l.06,0v.17l.06,0v-.15l.06,0v.15l.05,0v-.12l.06,0v.11l.18-.1,0,0-.18.1Zm-.53.61v-.19l-.1,0V64l-.07,0V64Zm-.23-.2-.07,0v-.08l-.1,0v.19l.17-.09Zm-.36-.14.16.1.1,0-.07-.05.07,0-.1-.06Zm.19-.34v.19l.1.06v-.08l.07,0v-.12Zm.23.21.07,0v.08l.1-.06v-.19l-.17.09Zm.2,0-.1.06.07,0-.07.05.1,0,.16-.1Z" transform="translate(-231.9 -47.63)"/>
  <g id="Snow-5">
    <path class="cls-1" d="M253,67.75c5.13.1,8.6-1.09,10.62-.33a4.8,4.8,0,0,0,4.39,0c1.65-.65,5.5-1.09,7,.54,0,0,3.3,1.09,4.4-1.41.08-.2.13-.37.19-.56-2-2-1.8-4.26-6.79-3.67s-9.51-1.82-13.17-1.22-8.43,1-10.62,2.43a8.55,8.55,0,0,0-2,1.62A8.6,8.6,0,0,0,253,67.75Z" transform="translate(-231.9 -47.63)"/>
    <path class="cls-2" d="M248.94,68.6a13.31,13.31,0,0,0,7.32.81,17.06,17.06,0,0,1,6.22-.42c1.9,0,2.17,1.32,4.37.3s3.75-.86,5.21.35,1.77,1.19,3.6,1.39,6.22-2.84,4-4.86l-.17-.18c-.06.19-.11.36-.19.56-1.1,2.5-4.4,1.41-4.4,1.41-1.46-1.63-5.31-1.19-7-.54a4.8,4.8,0,0,1-4.39,0c-2-.76-5.49.43-10.62.33a8.6,8.6,0,0,1-6-2.6C246.19,66.12,246.4,67.2,248.94,68.6Z" transform="translate(-231.9 -47.63)"/>
  </g>
  <g id="Snow-6">
    <path class="cls-1" d="M297.19,67.93c-3.15-2.71-6.68-.68-10.23-1s-11,.34-15.73,1-14.56,0-17.7-1-5.9,1.36-11.41.68c-3.92-.48-6.85-2.51-9.63-3,1.24-1.41,4.71-3.42,7.77-2.24A18.29,18.29,0,0,0,250,63.86c3.93-.34,12.59,3.39,15.74,1.7s8.64-5.43,12.58-4.07,5.31,1.78,9.74,1.61,7.18-.94,9.93.08,8.65-2.37,10.62,0c1.21,1.46,1.92,2.44,1.85,3.16a5.23,5.23,0,0,0-3.82,1.59C303.09,71.32,300.33,70.64,297.19,67.93Z" transform="translate(-231.9 -47.63)"/>
    <path class="cls-2" d="M309.28,67.42c-2,.77-4.17,10.2-6.59,7.17-3.28-4.12-4.59-7.22-9.37-6.94s-12.65-.74-17,.28-19.28,1-21.64,0-8.26,1-14.16.34c-2.84-.33-8-.93-7.86-2,0-.21.22.37.49.06,2.78.51,5,.79,8.94,1.27,5.51.68,8.26-1.69,11.41-.68s13,1.7,17.7,1,12.2-1.36,15.73-1,7.08-1.69,10.23,1,5.9,3.39,9.44,0a5.23,5.23,0,0,1,3.82-1.59C310.4,66.78,310,67.13,309.28,67.42Z" transform="translate(-231.9 -47.63)"/>
  </g>
  <g id="Snow-7">
    <path class="cls-1" d="M269.32,66.67c5.06-.6,5.82-1.51,5.82-1.51s1.68,2.17,6.14,2,6-.33,9.27-.63c2.13-.2,5.31-.64,7.3-.94a4.29,4.29,0,0,0-2-.87c-1.1-.15-5,.22-6.07,0-1.93-.42-2.26-1.08-2.27-1.21-.09-1.43-1.72,1.13-1.72,1.13-2.08-1.68-7.51-.44-13.58-.74s-8.18-.54-9.7.52a.73.73,0,0,0-.35.59C263.25,66,266.91,67,269.32,66.67Z" transform="translate(-231.9 -47.63)"/>
    <path class="cls-2" d="M268.32,68.63c1.76.76,4.26.57,5.29-.69s2-.51,4.05.24,5.82.3,8.09-.3c1.44-.38,13.27.83,12.76-1.44a1.86,1.86,0,0,0-.66-.86c-2,.3-5.17.74-7.3.94-3.28.3-4.8.45-9.27.63s-6.14-2-6.14-2-.76.91-5.82,1.51A6.07,6.07,0,0,1,264.17,65C264.09,66.19,266.83,68,268.32,68.63Z" transform="translate(-231.9 -47.63)"/>
  </g>
  <g id="Snow-8">
    <path class="cls-1" d="M235.14,67.76c-.83.86-1.31,1.54-2.91,1,.46-1,1.83-2.49.46-3.11-2-.87-.12-4.57,3.8-5.16s5.39,1.5,7.36,1.65.79,3.81,2.2,3.95c.56.06,2.63.05,4.92,0-2.26.3-4.6.38-6,.56C240.77,67.23,236.12,66.73,235.14,67.76Z" transform="translate(-231.9 -47.63)"/>
    <path class="cls-2" d="M249.6,67.6c-1.22.58-8.44.5-10,.18s-3.69.31-4.28,1.24c-1.08,1.69-1.41,1.36-2.88.77-.44-.18-.41-.54-.21-1,1.6.5,2.23-.64,3.41-1.35,1.83-1.09,4.63-.22,9.31-.73,1.43-.16,3.76-.26,6-.56,3.45,0,7.4-.14,7.4-.14C258.86,66.9,250.83,67,249.6,67.6Z" transform="translate(-231.9 -47.63)"/>
  </g>
  <rect class="cls-3" x="88.18" y="7.21" width="1.54" height="1.74"/>
  <path class="cls-1" d="M321.53,55.45l0,0-.09-.06-.06,0,.13.08-.06,0-.12-.08,0,0,.14.09-.06,0-.14-.09-.05,0,.2.13h0l-.2.13.05,0,.14-.09.06,0-.14.09,0,0,.12-.08.06,0-.13.07.06,0,.09-.06,0,0-.09.05.17.1,0,.05-.16-.1v.11l-.06,0V56l-.05,0v.14l-.05,0V56l-.05,0v.17l-.05,0v-.16l-.05,0v.24h0l-.21-.12v.06l.15.08v.07l-.15-.08v.06l.13.06v.07l-.13-.07v.06l.1,0v.07l-.1,0v.19h-.05v-.19l-.1,0v-.07l.1,0v-.06l-.13.07v-.07l.13-.06v-.06l-.15.08v-.07l.15-.08V56l-.22.12h0v-.24l-.06,0v.16l-.06,0V56l-.05,0v.14l-.05,0V56l-.05,0v.11l-.05,0v-.11l-.17.1,0-.05.17-.1-.09-.05.06,0,.09.06.05,0-.12-.07.06,0,.12.08,0,0-.14-.09.05,0,.15.09.05,0-.21-.13h0l.21-.13-.05,0-.15.09-.05,0,.14-.09,0,0-.12.08-.06,0,.12-.08-.05,0-.09.06-.06,0,.09-.05-.17-.1,0,0,.17.1v-.11l.05,0v.11l.05,0v-.14l.05,0v.14l.05,0V55.3l.06,0v.17l.06,0V55.3h0l.22.11v-.06l-.15-.08v-.06l.15.08v-.07l-.13-.06v-.07l.13.07V55.1l-.1-.05V55l.1.05v-.19h.05V55L321,55v.07l-.1.05v.06l.13-.07v.07l-.13.06v.07l.15-.08v.06l-.15.08v.06l.21-.11h0v.24l.05,0v-.17l.05,0v.17l.05,0V55.3l.05,0v.14l.05,0v-.11l.06,0v.11l.16-.1,0,0-.17.1ZM321,56v-.18l-.1-.05v.08l-.07,0V56Zm-.21-.19-.07,0V55.8l-.09.05V56l.16-.08Zm-.35-.13.15.1.1-.06-.07,0,.07,0-.1-.05Zm.19-.32v.18l.09,0v-.08l.07,0v-.11Zm.21.19.07,0v.08l.1,0v-.18l-.16.08Zm.19,0-.09.05.07,0-.07,0,.09.06.16-.1Z" transform="translate(-231.9 -47.63)"/>
  <g id="Snow-9">
    <path class="cls-1" d="M330.48,67.53c5.13.1,8.6-1.09,10.62-.33a4.8,4.8,0,0,0,4.39,0c1.65-.65,5.5-1.09,7,.54,0,0,3.3,1.09,4.4-1.41.08-.2.13-.37.19-.56-2-2-1.8-4.26-6.79-3.67s-9.51-1.82-13.17-1.22-8.43,1-10.62,2.43a8.55,8.55,0,0,0-2,1.62A8.63,8.63,0,0,0,330.48,67.53Z" transform="translate(-231.9 -47.63)"/>
    <path class="cls-2" d="M326.46,68.38a13.31,13.31,0,0,0,7.32.81,17.06,17.06,0,0,1,6.22-.42c1.9,0,2.17,1.32,4.37.3s3.75-.86,5.21.35,1.77,1.19,3.6,1.39,6.22-2.84,4-4.86l-.17-.18c-.06.19-.11.36-.19.56-1.1,2.5-4.4,1.41-4.4,1.41-1.46-1.63-5.31-1.19-7-.54a4.8,4.8,0,0,1-4.39,0c-2-.76-5.49.43-10.62.33a8.63,8.63,0,0,1-6-2.6C323.71,65.9,323.92,67,326.46,68.38Z" transform="translate(-231.9 -47.63)"/>
  </g>
  <path class="cls-1" d="M320.54,63.93c5.12.1,8.6-1.09,10.61-.33a4.82,4.82,0,0,0,4.4,0c1.64-.65,5.49-1.09,6.95.54,0,0,3.3,1.09,4.4-1.41a4.63,4.63,0,0,0,.19-.56c-2-2-1.8-4.26-6.78-3.67s-9.52-1.82-13.18-1.22-8.42,1-10.62,2.43a8.55,8.55,0,0,0-2,1.62A8.63,8.63,0,0,0,320.54,63.93Z" transform="translate(-231.9 -47.63)"/>
  <path class="cls-1" d="M301.28,64.38c5.13.11,10.54-2.57,12.55-1.81s3.77-3,5.42-3.64,5.49-1.09,6.95.54c0,0,3.3,1.09,4.4-1.41a4.63,4.63,0,0,0,.19-.56c-2-2-1.8-4.26-6.78-3.67s2.65-6.77-1-6.16S302.41,53.62,300.21,55c-.81.53-7.85,7-8.29,7.53C293.08,63.74,298.36,64.32,301.28,64.38Z" transform="translate(-231.9 -47.63)"/>
  <path class="cls-2" d="M313.23,59.46c-1.22.59-8.44.51-10,.19s-3.7.31-4.28,1.24c-1.08,1.69-1.41,1.36-2.88.77-.44-.18-.41-.54-.21-1,1.6.5,2.23-.64,3.4-1.35,1.84-1.09,4.64-.22,9.31-.73,1.44-.16,3.77-.26,6-.56,3.45-.05,7.39-.14,7.39-.14C322.49,58.77,314.46,58.88,313.23,59.46Z" transform="translate(-231.9 -47.63)"/>
  <path class="cls-2" d="M386.08,61.11c-1.22.59-8.44.5-10,.18s-3.7.32-4.29,1.25c-1.08,1.69-1.4,1.35-2.88.77-.44-.18-.41-.55-.21-1,1.6.5,2.23-.64,3.41-1.34,1.83-1.1-4.14-.39.54-.91,1.43-.15,1.37-.25,3.62-.56-6.39-3,7.38.47,7.38.47C384.15,60.85,387.31,60.53,386.08,61.11Z" transform="translate(-231.9 -47.63)"/>
</svg>
