<?xml version="1.0"?>
<svg xmlns="http://www.w3.org/2000/svg" xmlns:xlink="http://www.w3.org/1999/xlink" id="&#x421;&#x43B;&#x43E;&#x439;_1" data-name="&#x421;&#x43B;&#x43E;&#x439; 1" viewBox="0 0 42.47 36.31">
  <defs>
    <style>.cls-1{fill:#dde5f0;}.cls-2{fill:#fff;}.cls-3{fill:url(#New_Gradient_Swatch_1);}.cls-4{fill:#d7e4e8;}</style>
    <linearGradient id="New_Gradient_Swatch_1" x1="7134.28" y1="125.26" x2="7116.26" y2="125.26" gradientTransform="matrix(-1, 0, 0, 1, 7347.14, 0)" gradientUnits="userSpaceOnUse">
      <stop offset="0" stop-color="#edf1f2"/>
      <stop offset="0.43" stop-color="#e8eef0"/>
      <stop offset="0.97" stop-color="#d8e5e9"/>
      <stop offset="1" stop-color="#d7e4e8"/>
    </linearGradient>
  </defs>
  <title>snow-button-1</title>
  <g id="Menu_button_2">
    <g id="Icicles">
      <path class="cls-1" d="M209.77,112.83c.74.79,2.08,3.85,4,3s3.92-.65,4.79.44a5.9,5.9,0,0,1,1.31,3.7,11.64,11.64,0,0,0,.6,3.76c.63.63.56-1,.71-2.67.27-3,1.52-2.83,2.39-2a4.48,4.48,0,0,1,1.31,3.88,34.79,34.79,0,0,0,.22,5.1,7.53,7.53,0,0,1,0,2.27c-.22,2-.44,2-.22,3.57s-.22,3.92,0,4.79,1.09.65,1.31-.66-.22-4.44,0-5.53a39.65,39.65,0,0,0,.87-4.88,12.91,12.91,0,0,1,.21-4c.44-1.3.66-3,1.53-3.88s2-3.26,3.26-3.48,2.62.22,3.71-.87,1.64-.27,2.61.22,2.4.65,2.83-.22,2.83-.65,4.14-.22,3.48,1.1,5,0a4.5,4.5,0,0,0,1.3-2.08s-6.09.77-7.62.33-1.82-1-4.14,0c0,0-7.84,1.31-9.14.22s-7,.22-8.93.22-8.39,0-8.6-1.94-.81-3.6-2.9-6.73C209.41,103.73,208.7,111.68,209.77,112.83Z" transform="translate(-209.23 -102.89)"/>
      <path class="cls-2" d="M209.77,111.83c.74.79,2.08,3.85,4,3s3.92-.65,4.79.44a5.9,5.9,0,0,1,1.31,3.7,11.64,11.64,0,0,0,.6,3.76c.63.63.56-1,.71-2.67.27-3,1.52-2.83,2.39-2a4.48,4.48,0,0,1,1.31,3.88,34.79,34.79,0,0,0,.22,5.1,7.53,7.53,0,0,1,0,2.27c-.22,2-.44,2-.22,3.57s-.22,3.92,0,4.79,1.09.65,1.31-.66-.22-4.44,0-5.53a39.65,39.65,0,0,0,.87-4.88,12.91,12.91,0,0,1,.21-4c.44-1.3.66-3,1.53-3.88s2-3.26,3.26-3.48,2.62.22,3.71-.87,1.64-.27,2.61.22,2.4.65,2.83-.22,2.83-.65,4.14-.22,3.48,1.1,5,0a9.46,9.46,0,0,0,1.3-1.08,62.65,62.65,0,0,1-7.62-.67c-1.52-.44-1.82-1-4.14,0,0,0-7.84,1.31-9.14.22s-7,.22-8.93.22-7.9,8.69-8.6-1.94c-.13-2-.61-3.57-1.77-7.82C211,101.42,208.7,110.68,209.77,111.83Z" transform="translate(-209.23 -102.89)"/>
      <path class="cls-3" d="M212.86,114.7c2.33-.77,5-1.42,5.94-.22a8.56,8.56,0,0,1,1.59,4.57c0,1.31.1,3.38.31,3a20,20,0,0,0,.11-3.81,1.79,1.79,0,0,1,2.12-1.52,3.16,3.16,0,0,1,2.23,2.81c.1,1.85.1,3.57.1,5s.11,1.94.21,3.47a4.18,4.18,0,0,1-.21,2.37,3.94,3.94,0,0,0-.1,2.49,15,15,0,0,1,.21,3.48c-.11.44,0,1.2.21.77a12.34,12.34,0,0,0,.11-3.49,12.83,12.83,0,0,1,.1-4,41.07,41.07,0,0,0,.53-7,6.57,6.57,0,0,1,.36-2.94c.43-1.85.6-1.68,1.66-2.55a7.41,7.41,0,0,1,2.54-1.52s-2.76-.22-3.6.76-1.91.63-3.29-.24a2.47,2.47,0,0,0-2.76-.11c-.42.22-1-.87-1.59-1.63a4.16,4.16,0,0,0-4.24-.87A23.93,23.93,0,0,0,212.86,114.7Z" transform="translate(-209.23 -102.89)"/>
      <path class="cls-4" d="M226.12,113.62c1,.11,1.52-.76,2.17-.76a2.27,2.27,0,0,1,1.31.65s-.87.33-1.09.77a2.66,2.66,0,0,0-1-.44C227,113.73,226.12,113.62,226.12,113.62Z" transform="translate(-209.23 -102.89)"/>
    </g>
  </g>
</svg>
